solid out3
   facet normal -0.000000e+00 0.000000e+00 1.000000e+00
      outer loop
         vertex 5.025000e+01 4.900000e+01 6.500000e+00
         vertex 5.025000e+01 2.000000e+00 6.500000e+00
         vertex 5.100000e+01 4.900000e+01 6.500000e+00
      endloop
   endfacet
   facet normal 0.000000e+00 0.000000e+00 1.000000e+00
      outer loop
         vertex 5.100000e+01 4.900000e+01 6.500000e+00
         vertex 5.025000e+01 2.000000e+00 6.500000e+00
         vertex 5.100000e+01 2.000000e+00 6.500000e+00
      endloop
   endfacet
   facet normal 0.000000e+00 1.000000e+00 0.000000e+00
      outer loop
         vertex 5.025000e+01 4.900000e+01 0.000000e+00
         vertex 5.025000e+01 4.900000e+01 6.500000e+00
         vertex 5.100000e+01 4.900000e+01 0.000000e+00
      endloop
   endfacet
   facet normal 0.000000e+00 1.000000e+00 -0.000000e+00
      outer loop
         vertex 5.100000e+01 4.900000e+01 0.000000e+00
         vertex 5.025000e+01 4.900000e+01 6.500000e+00
         vertex 5.100000e+01 4.900000e+01 6.500000e+00
      endloop
   endfacet
   facet normal -1.000000e+00 0.000000e+00 0.000000e+00
      outer loop
         vertex 5.025000e+01 2.000000e+00 0.000000e+00
         vertex 5.025000e+01 2.000000e+00 6.500000e+00
         vertex 5.025000e+01 4.900000e+01 0.000000e+00
      endloop
   endfacet
   facet normal -1.000000e+00 0.000000e+00 0.000000e+00
      outer loop
         vertex 5.025000e+01 4.900000e+01 0.000000e+00
         vertex 5.025000e+01 2.000000e+00 6.500000e+00
         vertex 5.025000e+01 4.900000e+01 6.500000e+00
      endloop
   endfacet
   facet normal 0.000000e+00 -1.000000e+00 0.000000e+00
      outer loop
         vertex 5.100000e+01 2.000000e+00 0.000000e+00
         vertex 5.100000e+01 2.000000e+00 6.500000e+00
         vertex 5.025000e+01 2.000000e+00 0.000000e+00
      endloop
   endfacet
   facet normal 0.000000e+00 -1.000000e+00 0.000000e+00
      outer loop
         vertex 5.025000e+01 2.000000e+00 0.000000e+00
         vertex 5.100000e+01 2.000000e+00 6.500000e+00
         vertex 5.025000e+01 2.000000e+00 6.500000e+00
      endloop
   endfacet
   facet normal 1.000000e+00 0.000000e+00 -0.000000e+00
      outer loop
         vertex 5.100000e+01 4.900000e+01 0.000000e+00
         vertex 5.100000e+01 4.900000e+01 6.500000e+00
         vertex 5.100000e+01 2.000000e+00 0.000000e+00
      endloop
   endfacet
   facet normal 1.000000e+00 0.000000e+00 0.000000e+00
      outer loop
         vertex 5.100000e+01 2.000000e+00 0.000000e+00
         vertex 5.100000e+01 4.900000e+01 6.500000e+00
         vertex 5.100000e+01 2.000000e+00 6.500000e+00
      endloop
   endfacet
   facet normal 0.000000e+00 0.000000e+00 -1.000000e+00
      outer loop
         vertex 5.025000e+01 4.900000e+01 0.000000e+00
         vertex 5.100000e+01 4.900000e+01 0.000000e+00
         vertex 5.025000e+01 2.000000e+00 0.000000e+00
      endloop
   endfacet
   facet normal 0.000000e+00 0.000000e+00 -1.000000e+00
      outer loop
         vertex 5.025000e+01 2.000000e+00 0.000000e+00
         vertex 5.100000e+01 4.900000e+01 0.000000e+00
         vertex 5.100000e+01 2.000000e+00 0.000000e+00
      endloop
   endfacet
endsolid