solid outlet2
   facet normal -0.000000e+00 0.000000e+00 1.000000e+00
      outer loop
         vertex 5.100000e+00 2.700000e+00 2.500000e+00
         vertex 5.100000e+00 7.000000e-01 2.500000e+00
         vertex 5.400000e+00 2.700000e+00 2.500000e+00
      endloop
   endfacet
   facet normal 0.000000e+00 0.000000e+00 1.000000e+00
      outer loop
         vertex 5.400000e+00 2.700000e+00 2.500000e+00
         vertex 5.100000e+00 7.000000e-01 2.500000e+00
         vertex 5.400000e+00 7.000000e-01 2.500000e+00
      endloop
   endfacet
   facet normal 0.000000e+00 0.000000e+00 -1.000000e+00
      outer loop
         vertex 5.100000e+00 7.000000e-01 0.000000e+00
         vertex 5.100000e+00 2.700000e+00 0.000000e+00
         vertex 5.400000e+00 7.000000e-01 0.000000e+00
      endloop
   endfacet
   facet normal 0.000000e+00 0.000000e+00 -1.000000e+00
      outer loop
         vertex 5.400000e+00 7.000000e-01 0.000000e+00
         vertex 5.100000e+00 2.700000e+00 0.000000e+00
         vertex 5.400000e+00 2.700000e+00 0.000000e+00
      endloop
   endfacet
   facet normal 0.000000e+00 -1.000000e+00 0.000000e+00
      outer loop
         vertex 5.100000e+00 7.000000e-01 2.500000e+00
         vertex 5.100000e+00 7.000000e-01 0.000000e+00
         vertex 5.400000e+00 7.000000e-01 2.500000e+00
      endloop
   endfacet
   facet normal 0.000000e+00 -1.000000e+00 -0.000000e+00
      outer loop
         vertex 5.400000e+00 7.000000e-01 2.500000e+00
         vertex 5.100000e+00 7.000000e-01 0.000000e+00
         vertex 5.400000e+00 7.000000e-01 0.000000e+00
      endloop
   endfacet
   facet normal -1.000000e+00 -0.000000e+00 -0.000000e+00
      outer loop
         vertex 5.100000e+00 2.700000e+00 2.500000e+00
         vertex 5.100000e+00 2.700000e+00 0.000000e+00
         vertex 5.100000e+00 7.000000e-01 2.500000e+00
      endloop
   endfacet
   facet normal -1.000000e+00 0.000000e+00 0.000000e+00
      outer loop
         vertex 5.100000e+00 7.000000e-01 2.500000e+00
         vertex 5.100000e+00 2.700000e+00 0.000000e+00
         vertex 5.100000e+00 7.000000e-01 0.000000e+00
      endloop
   endfacet
   facet normal 0.000000e+00 1.000000e+00 0.000000e+00
      outer loop
         vertex 5.400000e+00 2.700000e+00 2.500000e+00
         vertex 5.400000e+00 2.700000e+00 0.000000e+00
         vertex 5.100000e+00 2.700000e+00 2.500000e+00
      endloop
   endfacet
   facet normal 0.000000e+00 1.000000e+00 0.000000e+00
      outer loop
         vertex 5.100000e+00 2.700000e+00 2.500000e+00
         vertex 5.400000e+00 2.700000e+00 0.000000e+00
         vertex 5.100000e+00 2.700000e+00 0.000000e+00
      endloop
   endfacet
   facet normal 1.000000e+00 -0.000000e+00 0.000000e+00
      outer loop
         vertex 5.400000e+00 7.000000e-01 2.500000e+00
         vertex 5.400000e+00 7.000000e-01 0.000000e+00
         vertex 5.400000e+00 2.700000e+00 2.500000e+00
      endloop
   endfacet
   facet normal 1.000000e+00 0.000000e+00 0.000000e+00
      outer loop
         vertex 5.400000e+00 2.700000e+00 2.500000e+00
         vertex 5.400000e+00 7.000000e-01 0.000000e+00
         vertex 5.400000e+00 2.700000e+00 0.000000e+00
      endloop
   endfacet
endsolid