solid walls
   facet normal 0.000000e+00 0.000000e+00 -1.000000e+00
      outer loop
         vertex 2.000000e-01 2.700000e+00 0.000000e+00
         vertex 0.000000e+00 2.700000e+00 0.000000e+00
         vertex 2.000000e-01 3.200000e+00 0.000000e+00
      endloop
   endfacet
   facet normal -0.000000e+00 0.000000e+00 -1.000000e+00
      outer loop
         vertex 2.000000e-01 3.200000e+00 0.000000e+00
         vertex 0.000000e+00 2.700000e+00 0.000000e+00
         vertex 0.000000e+00 3.400000e+00 0.000000e+00
      endloop
   endfacet
   facet normal 0.000000e+00 0.000000e+00 -1.000000e+00
      outer loop
         vertex 2.000000e-01 3.200000e+00 0.000000e+00
         vertex 0.000000e+00 3.400000e+00 0.000000e+00
         vertex 5.200000e+00 3.200000e+00 0.000000e+00
      endloop
   endfacet
   facet normal 0.000000e+00 0.000000e+00 -1.000000e+00
      outer loop
         vertex 5.200000e+00 3.200000e+00 0.000000e+00
         vertex 0.000000e+00 3.400000e+00 0.000000e+00
         vertex 5.400000e+00 3.400000e+00 0.000000e+00
      endloop
   endfacet
   facet normal 0.000000e+00 0.000000e+00 -1.000000e+00
      outer loop
         vertex 5.200000e+00 3.200000e+00 0.000000e+00
         vertex 5.400000e+00 3.400000e+00 0.000000e+00
         vertex 5.200000e+00 2.700000e+00 0.000000e+00
      endloop
   endfacet
   facet normal 0.000000e+00 0.000000e+00 -1.000000e+00
      outer loop
         vertex 5.200000e+00 2.700000e+00 0.000000e+00
         vertex 5.400000e+00 3.400000e+00 0.000000e+00
         vertex 5.400000e+00 2.700000e+00 0.000000e+00
      endloop
   endfacet
   facet normal 0.000000e+00 0.000000e+00 1.000000e+00
      outer loop
         vertex 2.000000e-01 3.200000e+00 3.000000e+00
         vertex 0.000000e+00 3.400000e+00 3.000000e+00
         vertex 2.000000e-01 2.000000e-01 3.000000e+00
      endloop
   endfacet
   facet normal 0.000000e+00 0.000000e+00 1.000000e+00
      outer loop
         vertex 2.000000e-01 2.000000e-01 3.000000e+00
         vertex 0.000000e+00 3.400000e+00 3.000000e+00
         vertex 0.000000e+00 0.000000e+00 3.000000e+00
      endloop
   endfacet
   facet normal -0.000000e+00 0.000000e+00 1.000000e+00
      outer loop
         vertex 2.000000e-01 2.000000e-01 3.000000e+00
         vertex 0.000000e+00 0.000000e+00 3.000000e+00
         vertex 5.200000e+00 2.000000e-01 3.000000e+00
      endloop
   endfacet
   facet normal 0.000000e+00 0.000000e+00 1.000000e+00
      outer loop
         vertex 5.200000e+00 2.000000e-01 3.000000e+00
         vertex 0.000000e+00 0.000000e+00 3.000000e+00
         vertex 5.400000e+00 0.000000e+00 3.000000e+00
      endloop
   endfacet
   facet normal -0.000000e+00 0.000000e+00 1.000000e+00
      outer loop
         vertex 5.200000e+00 2.000000e-01 3.000000e+00
         vertex 5.400000e+00 0.000000e+00 3.000000e+00
         vertex 5.200000e+00 3.200000e+00 3.000000e+00
      endloop
   endfacet
   facet normal -0.000000e+00 0.000000e+00 1.000000e+00
      outer loop
         vertex 5.200000e+00 3.200000e+00 3.000000e+00
         vertex 5.400000e+00 0.000000e+00 3.000000e+00
         vertex 5.400000e+00 3.400000e+00 3.000000e+00
      endloop
   endfacet
   facet normal 0.000000e+00 -0.000000e+00 1.000000e+00
      outer loop
         vertex 5.200000e+00 3.200000e+00 3.000000e+00
         vertex 5.400000e+00 3.400000e+00 3.000000e+00
         vertex 2.000000e-01 3.200000e+00 3.000000e+00
      endloop
   endfacet
   facet normal 0.000000e+00 -0.000000e+00 1.000000e+00
      outer loop
         vertex 2.000000e-01 3.200000e+00 3.000000e+00
         vertex 5.400000e+00 3.400000e+00 3.000000e+00
         vertex 0.000000e+00 3.400000e+00 3.000000e+00
      endloop
   endfacet
   facet normal 0.000000e+00 0.000000e+00 -1.000000e+00
      outer loop
         vertex 5.200000e+00 7.000000e-01 0.000000e+00
         vertex 5.400000e+00 7.000000e-01 0.000000e+00
         vertex 5.200000e+00 2.000000e-01 0.000000e+00
      endloop
   endfacet
   facet normal 0.000000e+00 0.000000e+00 -1.000000e+00
      outer loop
         vertex 5.200000e+00 2.000000e-01 0.000000e+00
         vertex 5.400000e+00 7.000000e-01 0.000000e+00
         vertex 5.400000e+00 0.000000e+00 0.000000e+00
      endloop
   endfacet
   facet normal -0.000000e+00 -0.000000e+00 -1.000000e+00
      outer loop
         vertex 5.200000e+00 2.000000e-01 0.000000e+00
         vertex 5.400000e+00 0.000000e+00 0.000000e+00
         vertex 2.000000e-01 2.000000e-01 0.000000e+00
      endloop
   endfacet
   facet normal 0.000000e+00 -0.000000e+00 -1.000000e+00
      outer loop
         vertex 2.000000e-01 2.000000e-01 0.000000e+00
         vertex 5.400000e+00 0.000000e+00 0.000000e+00
         vertex 0.000000e+00 0.000000e+00 0.000000e+00
      endloop
   endfacet
   facet normal -0.000000e+00 0.000000e+00 -1.000000e+00
      outer loop
         vertex 2.000000e-01 2.000000e-01 0.000000e+00
         vertex 0.000000e+00 0.000000e+00 0.000000e+00
         vertex 2.000000e-01 7.000000e-01 0.000000e+00
      endloop
   endfacet
   facet normal -0.000000e+00 0.000000e+00 -1.000000e+00
      outer loop
         vertex 2.000000e-01 7.000000e-01 0.000000e+00
         vertex 0.000000e+00 0.000000e+00 0.000000e+00
         vertex 0.000000e+00 7.000000e-01 0.000000e+00
      endloop
   endfacet
   facet normal -0.000000e+00 -1.000000e+00 -0.000000e+00
      outer loop
         vertex 5.400000e+00 0.000000e+00 3.000000e+00
         vertex 0.000000e+00 0.000000e+00 3.000000e+00
         vertex 5.400000e+00 0.000000e+00 0.000000e+00
      endloop
   endfacet
   facet normal 0.000000e+00 -1.000000e+00 0.000000e+00
      outer loop
         vertex 5.400000e+00 0.000000e+00 0.000000e+00
         vertex 0.000000e+00 0.000000e+00 3.000000e+00
         vertex 0.000000e+00 0.000000e+00 0.000000e+00
      endloop
   endfacet
   facet normal 1.000000e+00 0.000000e+00 0.000000e+00
      outer loop
         vertex 5.400000e+00 2.700000e+00 0.000000e+00
         vertex 5.400000e+00 3.400000e+00 0.000000e+00
         vertex 5.400000e+00 2.700000e+00 2.500000e+00
      endloop
   endfacet
   facet normal 1.000000e+00 -0.000000e+00 0.000000e+00
      outer loop
         vertex 5.400000e+00 2.700000e+00 2.500000e+00
         vertex 5.400000e+00 3.400000e+00 0.000000e+00
         vertex 5.400000e+00 3.400000e+00 3.000000e+00
      endloop
   endfacet
   facet normal 1.000000e+00 0.000000e+00 -0.000000e+00
      outer loop
         vertex 5.400000e+00 2.700000e+00 2.500000e+00
         vertex 5.400000e+00 3.400000e+00 3.000000e+00
         vertex 5.400000e+00 7.000000e-01 2.500000e+00
      endloop
   endfacet
   facet normal 1.000000e+00 0.000000e+00 -0.000000e+00
      outer loop
         vertex 5.400000e+00 7.000000e-01 2.500000e+00
         vertex 5.400000e+00 3.400000e+00 3.000000e+00
         vertex 5.400000e+00 0.000000e+00 3.000000e+00
      endloop
   endfacet
   facet normal 1.000000e+00 0.000000e+00 0.000000e+00
      outer loop
         vertex 5.400000e+00 7.000000e-01 2.500000e+00
         vertex 5.400000e+00 0.000000e+00 3.000000e+00
         vertex 5.400000e+00 7.000000e-01 4.440892e-16
      endloop
   endfacet
   facet normal 1.000000e+00 0.000000e+00 0.000000e+00
      outer loop
         vertex 5.400000e+00 7.000000e-01 4.440892e-16
         vertex 5.400000e+00 0.000000e+00 3.000000e+00
         vertex 5.400000e+00 0.000000e+00 0.000000e+00
      endloop
   endfacet
   facet normal -0.000000e+00 1.000000e+00 0.000000e+00
      outer loop
         vertex 0.000000e+00 3.400000e+00 3.000000e+00
         vertex 5.400000e+00 3.400000e+00 3.000000e+00
         vertex 0.000000e+00 3.400000e+00 0.000000e+00
      endloop
   endfacet
   facet normal 0.000000e+00 1.000000e+00 0.000000e+00
      outer loop
         vertex 0.000000e+00 3.400000e+00 0.000000e+00
         vertex 5.400000e+00 3.400000e+00 3.000000e+00
         vertex 5.400000e+00 3.400000e+00 0.000000e+00
      endloop
   endfacet
   facet normal -1.000000e+00 -0.000000e+00 0.000000e+00
      outer loop
         vertex 0.000000e+00 7.000000e-01 4.440892e-16
         vertex 0.000000e+00 0.000000e+00 0.000000e+00
         vertex 0.000000e+00 7.000000e-01 2.500000e+00
      endloop
   endfacet
   facet normal -1.000000e+00 -0.000000e+00 0.000000e+00
      outer loop
         vertex 0.000000e+00 7.000000e-01 2.500000e+00
         vertex 0.000000e+00 0.000000e+00 0.000000e+00
         vertex 0.000000e+00 0.000000e+00 3.000000e+00
      endloop
   endfacet
   facet normal -1.000000e+00 0.000000e+00 0.000000e+00
      outer loop
         vertex 0.000000e+00 7.000000e-01 2.500000e+00
         vertex 0.000000e+00 0.000000e+00 3.000000e+00
         vertex 0.000000e+00 2.700000e+00 2.500000e+00
      endloop
   endfacet
   facet normal -1.000000e+00 0.000000e+00 0.000000e+00
      outer loop
         vertex 0.000000e+00 2.700000e+00 2.500000e+00
         vertex 0.000000e+00 0.000000e+00 3.000000e+00
         vertex 0.000000e+00 3.400000e+00 3.000000e+00
      endloop
   endfacet
   facet normal -1.000000e+00 0.000000e+00 0.000000e+00
      outer loop
         vertex 0.000000e+00 2.700000e+00 2.500000e+00
         vertex 0.000000e+00 3.400000e+00 3.000000e+00
         vertex 0.000000e+00 2.700000e+00 0.000000e+00
      endloop
   endfacet
   facet normal -1.000000e+00 0.000000e+00 0.000000e+00
      outer loop
         vertex 0.000000e+00 2.700000e+00 0.000000e+00
         vertex 0.000000e+00 3.400000e+00 3.000000e+00
         vertex 0.000000e+00 3.400000e+00 0.000000e+00
      endloop
   endfacet
   facet normal 1.000000e+00 0.000000e+00 0.000000e+00
      outer loop
         vertex 2.000000e-01 2.700000e+00 0.000000e+00
         vertex 2.000000e-01 3.200000e+00 0.000000e+00
         vertex 2.000000e-01 2.700000e+00 2.500000e+00
      endloop
   endfacet
   facet normal 1.000000e+00 -0.000000e+00 0.000000e+00
      outer loop
         vertex 2.000000e-01 2.700000e+00 2.500000e+00
         vertex 2.000000e-01 3.200000e+00 0.000000e+00
         vertex 2.000000e-01 3.200000e+00 3.000000e+00
      endloop
   endfacet
   facet normal 1.000000e+00 0.000000e+00 -0.000000e+00
      outer loop
         vertex 2.000000e-01 2.700000e+00 2.500000e+00
         vertex 2.000000e-01 3.200000e+00 3.000000e+00
         vertex 2.000000e-01 7.000000e-01 2.500000e+00
      endloop
   endfacet
   facet normal 1.000000e+00 0.000000e+00 -0.000000e+00
      outer loop
         vertex 2.000000e-01 7.000000e-01 2.500000e+00
         vertex 2.000000e-01 3.200000e+00 3.000000e+00
         vertex 2.000000e-01 2.000000e-01 3.000000e+00
      endloop
   endfacet
   facet normal 1.000000e+00 0.000000e+00 0.000000e+00
      outer loop
         vertex 2.000000e-01 7.000000e-01 2.500000e+00
         vertex 2.000000e-01 2.000000e-01 3.000000e+00
         vertex 2.000000e-01 7.000000e-01 4.440892e-16
      endloop
   endfacet
   facet normal 1.000000e+00 0.000000e+00 0.000000e+00
      outer loop
         vertex 2.000000e-01 7.000000e-01 4.440892e-16
         vertex 2.000000e-01 2.000000e-01 3.000000e+00
         vertex 2.000000e-01 2.000000e-01 0.000000e+00
      endloop
   endfacet
   facet normal -0.000000e+00 1.000000e+00 0.000000e+00
      outer loop
         vertex 2.000000e-01 2.000000e-01 3.000000e+00
         vertex 5.200000e+00 2.000000e-01 3.000000e+00
         vertex 2.000000e-01 2.000000e-01 0.000000e+00
      endloop
   endfacet
   facet normal 0.000000e+00 1.000000e+00 0.000000e+00
      outer loop
         vertex 2.000000e-01 2.000000e-01 0.000000e+00
         vertex 5.200000e+00 2.000000e-01 3.000000e+00
         vertex 5.200000e+00 2.000000e-01 0.000000e+00
      endloop
   endfacet
   facet normal -1.000000e+00 0.000000e+00 0.000000e+00
      outer loop
         vertex 5.200000e+00 7.000000e-01 0.000000e+00
         vertex 5.200000e+00 2.000000e-01 0.000000e+00
         vertex 5.200000e+00 7.000000e-01 2.500000e+00
      endloop
   endfacet
   facet normal -1.000000e+00 -0.000000e+00 0.000000e+00
      outer loop
         vertex 5.200000e+00 7.000000e-01 2.500000e+00
         vertex 5.200000e+00 2.000000e-01 0.000000e+00
         vertex 5.200000e+00 2.000000e-01 3.000000e+00
      endloop
   endfacet
   facet normal -1.000000e+00 0.000000e+00 0.000000e+00
      outer loop
         vertex 5.200000e+00 7.000000e-01 2.500000e+00
         vertex 5.200000e+00 2.000000e-01 3.000000e+00
         vertex 5.200000e+00 2.700000e+00 2.500000e+00
      endloop
   endfacet
   facet normal -1.000000e+00 0.000000e+00 0.000000e+00
      outer loop
         vertex 5.200000e+00 2.700000e+00 2.500000e+00
         vertex 5.200000e+00 2.000000e-01 3.000000e+00
         vertex 5.200000e+00 3.200000e+00 3.000000e+00
      endloop
   endfacet
   facet normal -1.000000e+00 0.000000e+00 0.000000e+00
      outer loop
         vertex 5.200000e+00 2.700000e+00 2.500000e+00
         vertex 5.200000e+00 3.200000e+00 3.000000e+00
         vertex 5.200000e+00 2.700000e+00 0.000000e+00
      endloop
   endfacet
   facet normal -1.000000e+00 0.000000e+00 0.000000e+00
      outer loop
         vertex 5.200000e+00 2.700000e+00 0.000000e+00
         vertex 5.200000e+00 3.200000e+00 3.000000e+00
         vertex 5.200000e+00 3.200000e+00 0.000000e+00
      endloop
   endfacet
   facet normal -0.000000e+00 -1.000000e+00 -0.000000e+00
      outer loop
         vertex 5.200000e+00 3.200000e+00 3.000000e+00
         vertex 2.000000e-01 3.200000e+00 3.000000e+00
         vertex 5.200000e+00 3.200000e+00 0.000000e+00
      endloop
   endfacet
   facet normal 0.000000e+00 -1.000000e+00 0.000000e+00
      outer loop
         vertex 5.200000e+00 3.200000e+00 0.000000e+00
         vertex 2.000000e-01 3.200000e+00 3.000000e+00
         vertex 2.000000e-01 3.200000e+00 0.000000e+00
      endloop
   endfacet
   facet normal 0.000000e+00 1.000000e+00 0.000000e+00
      outer loop
         vertex 5.400000e+00 7.000000e-01 2.500000e+00
         vertex 5.400000e+00 7.000000e-01 2.449294e-16
         vertex 5.200000e+00 7.000000e-01 2.500000e+00
      endloop
   endfacet
   facet normal 0.000000e+00 1.000000e+00 0.000000e+00
      outer loop
         vertex 5.200000e+00 7.000000e-01 2.500000e+00
         vertex 5.400000e+00 7.000000e-01 2.449294e-16
         vertex 5.200000e+00 7.000000e-01 0.000000e+00
      endloop
   endfacet
   facet normal -0.000000e+00 -0.000000e+00 -1.000000e+00
      outer loop
         vertex 5.400000e+00 2.700000e+00 2.500000e+00
         vertex 5.400000e+00 7.000000e-01 2.500000e+00
         vertex 5.200000e+00 2.700000e+00 2.500000e+00
      endloop
   endfacet
   facet normal 0.000000e+00 0.000000e+00 -1.000000e+00
      outer loop
         vertex 5.200000e+00 2.700000e+00 2.500000e+00
         vertex 5.400000e+00 7.000000e-01 2.500000e+00
         vertex 5.200000e+00 7.000000e-01 2.500000e+00
      endloop
   endfacet
   facet normal 0.000000e+00 -1.000000e+00 0.000000e+00
      outer loop
         vertex 5.400000e+00 2.700000e+00 4.930381e-32
         vertex 5.400000e+00 2.700000e+00 2.500000e+00
         vertex 5.200000e+00 2.700000e+00 4.930381e-32
      endloop
   endfacet
   facet normal 0.000000e+00 -1.000000e+00 0.000000e+00
      outer loop
         vertex 5.200000e+00 2.700000e+00 4.930381e-32
         vertex 5.400000e+00 2.700000e+00 2.500000e+00
         vertex 5.200000e+00 2.700000e+00 2.500000e+00
      endloop
   endfacet
   facet normal -0.000000e+00 -1.000000e+00 -0.000000e+00
      outer loop
         vertex 2.000000e-01 2.700000e+00 2.500000e+00
         vertex 0.000000e+00 2.700000e+00 2.500000e+00
         vertex 2.000000e-01 2.700000e+00 4.930381e-32
      endloop
   endfacet
   facet normal 0.000000e+00 -1.000000e+00 0.000000e+00
      outer loop
         vertex 2.000000e-01 2.700000e+00 4.930381e-32
         vertex 0.000000e+00 2.700000e+00 2.500000e+00
         vertex 0.000000e+00 2.700000e+00 4.930381e-32
      endloop
   endfacet
   facet normal 0.000000e+00 0.000000e+00 -1.000000e+00
      outer loop
         vertex 2.000000e-01 7.000000e-01 2.500000e+00
         vertex 0.000000e+00 7.000000e-01 2.500000e+00
         vertex 2.000000e-01 2.700000e+00 2.500000e+00
      endloop
   endfacet
   facet normal -0.000000e+00 0.000000e+00 -1.000000e+00
      outer loop
         vertex 2.000000e-01 2.700000e+00 2.500000e+00
         vertex 0.000000e+00 7.000000e-01 2.500000e+00
         vertex 0.000000e+00 2.700000e+00 2.500000e+00
      endloop
   endfacet
   facet normal 0.000000e+00 1.000000e+00 -0.000000e+00
      outer loop
         vertex 2.000000e-01 7.000000e-01 2.449294e-16
         vertex 0.000000e+00 7.000000e-01 2.449294e-16
         vertex 2.000000e-01 7.000000e-01 2.500000e+00
      endloop
   endfacet
   facet normal 0.000000e+00 1.000000e+00 0.000000e+00
      outer loop
         vertex 2.000000e-01 7.000000e-01 2.500000e+00
         vertex 0.000000e+00 7.000000e-01 2.449294e-16
         vertex 0.000000e+00 7.000000e-01 2.500000e+00
      endloop
   endfacet
endsolid