solid walls
   facet normal 0.000000e+00 0.000000e+00 -1.000000e+00
      outer loop
         vertex 5.000000e-01 4.900000e+01 0.000000e+00
         vertex 0.000000e+00 4.900000e+01 0.000000e+00
         vertex 5.000000e-01 5.050000e+01 0.000000e+00
      endloop
   endfacet
   facet normal -0.000000e+00 0.000000e+00 -1.000000e+00
      outer loop
         vertex 5.000000e-01 5.050000e+01 0.000000e+00
         vertex 0.000000e+00 4.900000e+01 0.000000e+00
         vertex 0.000000e+00 5.100000e+01 0.000000e+00
      endloop
   endfacet
   facet normal 0.000000e+00 0.000000e+00 -1.000000e+00
      outer loop
         vertex 5.000000e-01 5.050000e+01 0.000000e+00
         vertex 0.000000e+00 5.100000e+01 0.000000e+00
         vertex 2.000000e+00 5.050000e+01 0.000000e+00
      endloop
   endfacet
   facet normal 0.000000e+00 0.000000e+00 -1.000000e+00
      outer loop
         vertex 2.000000e+00 5.050000e+01 0.000000e+00
         vertex 0.000000e+00 5.100000e+01 0.000000e+00
         vertex 2.000000e+00 5.100000e+01 0.000000e+00
      endloop
   endfacet
   facet normal 0.000000e+00 0.000000e+00 -1.000000e+00
      outer loop
         vertex 4.900000e+01 5.050000e+01 0.000000e+00
         vertex 4.900000e+01 5.100000e+01 0.000000e+00
         vertex 5.050000e+01 5.050000e+01 0.000000e+00
      endloop
   endfacet
   facet normal 0.000000e+00 0.000000e+00 -1.000000e+00
      outer loop
         vertex 5.050000e+01 5.050000e+01 0.000000e+00
         vertex 4.900000e+01 5.100000e+01 0.000000e+00
         vertex 5.100000e+01 5.100000e+01 0.000000e+00
      endloop
   endfacet
   facet normal 0.000000e+00 0.000000e+00 -1.000000e+00
      outer loop
         vertex 5.050000e+01 5.050000e+01 0.000000e+00
         vertex 5.100000e+01 5.100000e+01 0.000000e+00
         vertex 5.050000e+01 4.900000e+01 0.000000e+00
      endloop
   endfacet
   facet normal 0.000000e+00 0.000000e+00 -1.000000e+00
      outer loop
         vertex 5.050000e+01 4.900000e+01 0.000000e+00
         vertex 5.100000e+01 5.100000e+01 0.000000e+00
         vertex 5.100000e+01 4.900000e+01 0.000000e+00
      endloop
   endfacet
   facet normal -0.000000e+00 -0.000000e+00 -1.000000e+00
      outer loop
         vertex 2.000000e+00 5.000000e-01 0.000000e+00
         vertex 2.000000e+00 0.000000e+00 0.000000e+00
         vertex 5.000000e-01 5.000000e-01 0.000000e+00
      endloop
   endfacet
   facet normal 0.000000e+00 -0.000000e+00 -1.000000e+00
      outer loop
         vertex 5.000000e-01 5.000000e-01 0.000000e+00
         vertex 2.000000e+00 0.000000e+00 0.000000e+00
         vertex 0.000000e+00 0.000000e+00 0.000000e+00
      endloop
   endfacet
   facet normal -0.000000e+00 0.000000e+00 -1.000000e+00
      outer loop
         vertex 5.000000e-01 5.000000e-01 0.000000e+00
         vertex 0.000000e+00 0.000000e+00 0.000000e+00
         vertex 5.000000e-01 2.000000e+00 0.000000e+00
      endloop
   endfacet
   facet normal -0.000000e+00 0.000000e+00 -1.000000e+00
      outer loop
         vertex 5.000000e-01 2.000000e+00 0.000000e+00
         vertex 0.000000e+00 0.000000e+00 0.000000e+00
         vertex 0.000000e+00 2.000000e+00 0.000000e+00
      endloop
   endfacet
   facet normal 0.000000e+00 0.000000e+00 1.000000e+00
      outer loop
         vertex 5.000000e-01 5.050000e+01 7.000000e+00
         vertex 0.000000e+00 5.100000e+01 7.000000e+00
         vertex 5.000000e-01 5.000000e-01 7.000000e+00
      endloop
   endfacet
   facet normal 0.000000e+00 0.000000e+00 1.000000e+00
      outer loop
         vertex 5.000000e-01 5.000000e-01 7.000000e+00
         vertex 0.000000e+00 5.100000e+01 7.000000e+00
         vertex 0.000000e+00 0.000000e+00 7.000000e+00
      endloop
   endfacet
   facet normal -0.000000e+00 0.000000e+00 1.000000e+00
      outer loop
         vertex 5.000000e-01 5.000000e-01 7.000000e+00
         vertex 0.000000e+00 0.000000e+00 7.000000e+00
         vertex 5.050000e+01 5.000000e-01 7.000000e+00
      endloop
   endfacet
   facet normal 0.000000e+00 0.000000e+00 1.000000e+00
      outer loop
         vertex 5.050000e+01 5.000000e-01 7.000000e+00
         vertex 0.000000e+00 0.000000e+00 7.000000e+00
         vertex 5.100000e+01 0.000000e+00 7.000000e+00
      endloop
   endfacet
   facet normal -0.000000e+00 0.000000e+00 1.000000e+00
      outer loop
         vertex 5.050000e+01 5.000000e-01 7.000000e+00
         vertex 5.100000e+01 0.000000e+00 7.000000e+00
         vertex 5.050000e+01 5.050000e+01 7.000000e+00
      endloop
   endfacet
   facet normal -0.000000e+00 0.000000e+00 1.000000e+00
      outer loop
         vertex 5.050000e+01 5.050000e+01 7.000000e+00
         vertex 5.100000e+01 0.000000e+00 7.000000e+00
         vertex 5.100000e+01 5.100000e+01 7.000000e+00
      endloop
   endfacet
   facet normal 0.000000e+00 -0.000000e+00 1.000000e+00
      outer loop
         vertex 5.050000e+01 5.050000e+01 7.000000e+00
         vertex 5.100000e+01 5.100000e+01 7.000000e+00
         vertex 5.000000e-01 5.050000e+01 7.000000e+00
      endloop
   endfacet
   facet normal 0.000000e+00 -0.000000e+00 1.000000e+00
      outer loop
         vertex 5.000000e-01 5.050000e+01 7.000000e+00
         vertex 5.100000e+01 5.100000e+01 7.000000e+00
         vertex 0.000000e+00 5.100000e+01 7.000000e+00
      endloop
   endfacet
   facet normal 0.000000e+00 0.000000e+00 -1.000000e+00
      outer loop
         vertex 5.050000e+01 2.000000e+00 0.000000e+00
         vertex 5.100000e+01 2.000000e+00 0.000000e+00
         vertex 5.050000e+01 5.000000e-01 0.000000e+00
      endloop
   endfacet
   facet normal 0.000000e+00 0.000000e+00 -1.000000e+00
      outer loop
         vertex 5.050000e+01 5.000000e-01 0.000000e+00
         vertex 5.100000e+01 2.000000e+00 0.000000e+00
         vertex 5.100000e+01 0.000000e+00 0.000000e+00
      endloop
   endfacet
   facet normal -0.000000e+00 -0.000000e+00 -1.000000e+00
      outer loop
         vertex 5.050000e+01 5.000000e-01 0.000000e+00
         vertex 5.100000e+01 0.000000e+00 0.000000e+00
         vertex 4.900000e+01 5.000000e-01 0.000000e+00
      endloop
   endfacet
   facet normal 0.000000e+00 0.000000e+00 -1.000000e+00
      outer loop
         vertex 4.900000e+01 5.000000e-01 0.000000e+00
         vertex 5.100000e+01 0.000000e+00 0.000000e+00
         vertex 4.900000e+01 0.000000e+00 0.000000e+00
      endloop
   endfacet
   facet normal 0.000000e+00 -1.000000e+00 0.000000e+00
      outer loop
         vertex 4.900000e+01 0.000000e+00 0.000000e+00
         vertex 5.100000e+01 0.000000e+00 0.000000e+00
         vertex 4.900000e+01 0.000000e+00 6.500000e+00
      endloop
   endfacet
   facet normal 0.000000e+00 -1.000000e+00 0.000000e+00
      outer loop
         vertex 4.900000e+01 0.000000e+00 6.500000e+00
         vertex 5.100000e+01 0.000000e+00 0.000000e+00
         vertex 5.100000e+01 0.000000e+00 7.000000e+00
      endloop
   endfacet
   facet normal 0.000000e+00 -1.000000e+00 0.000000e+00
      outer loop
         vertex 4.900000e+01 0.000000e+00 6.500000e+00
         vertex 5.100000e+01 0.000000e+00 7.000000e+00
         vertex 2.000000e+00 0.000000e+00 6.500000e+00
      endloop
   endfacet
   facet normal 0.000000e+00 -1.000000e+00 0.000000e+00
      outer loop
         vertex 2.000000e+00 0.000000e+00 6.500000e+00
         vertex 5.100000e+01 0.000000e+00 7.000000e+00
         vertex 0.000000e+00 0.000000e+00 7.000000e+00
      endloop
   endfacet
   facet normal -0.000000e+00 -1.000000e+00 -0.000000e+00
      outer loop
         vertex 2.000000e+00 0.000000e+00 6.500000e+00
         vertex 0.000000e+00 0.000000e+00 7.000000e+00
         vertex 2.000000e+00 0.000000e+00 0.000000e+00
      endloop
   endfacet
   facet normal 0.000000e+00 -1.000000e+00 0.000000e+00
      outer loop
         vertex 2.000000e+00 0.000000e+00 0.000000e+00
         vertex 0.000000e+00 0.000000e+00 7.000000e+00
         vertex 0.000000e+00 0.000000e+00 0.000000e+00
      endloop
   endfacet
   facet normal 1.000000e+00 0.000000e+00 0.000000e+00
      outer loop
         vertex 5.100000e+01 4.900000e+01 0.000000e+00
         vertex 5.100000e+01 5.100000e+01 0.000000e+00
         vertex 5.100000e+01 4.900000e+01 6.500000e+00
      endloop
   endfacet
   facet normal 1.000000e+00 -0.000000e+00 0.000000e+00
      outer loop
         vertex 5.100000e+01 4.900000e+01 6.500000e+00
         vertex 5.100000e+01 5.100000e+01 0.000000e+00
         vertex 5.100000e+01 5.100000e+01 7.000000e+00
      endloop
   endfacet
   facet normal 1.000000e+00 0.000000e+00 -0.000000e+00
      outer loop
         vertex 5.100000e+01 4.900000e+01 6.500000e+00
         vertex 5.100000e+01 5.100000e+01 7.000000e+00
         vertex 5.100000e+01 2.000000e+00 6.500000e+00
      endloop
   endfacet
   facet normal 1.000000e+00 0.000000e+00 -0.000000e+00
      outer loop
         vertex 5.100000e+01 2.000000e+00 6.500000e+00
         vertex 5.100000e+01 5.100000e+01 7.000000e+00
         vertex 5.100000e+01 0.000000e+00 7.000000e+00
      endloop
   endfacet
   facet normal 1.000000e+00 0.000000e+00 0.000000e+00
      outer loop
         vertex 5.100000e+01 2.000000e+00 6.500000e+00
         vertex 5.100000e+01 0.000000e+00 7.000000e+00
         vertex 5.100000e+01 2.000000e+00 5.329071e-15
      endloop
   endfacet
   facet normal 1.000000e+00 0.000000e+00 0.000000e+00
      outer loop
         vertex 5.100000e+01 2.000000e+00 5.329071e-15
         vertex 5.100000e+01 0.000000e+00 7.000000e+00
         vertex 5.100000e+01 0.000000e+00 0.000000e+00
      endloop
   endfacet
   facet normal 0.000000e+00 1.000000e+00 -0.000000e+00
      outer loop
         vertex 2.000000e+00 5.100000e+01 0.000000e+00
         vertex 0.000000e+00 5.100000e+01 0.000000e+00
         vertex 2.000000e+00 5.100000e+01 6.500000e+00
      endloop
   endfacet
   facet normal 0.000000e+00 1.000000e+00 0.000000e+00
      outer loop
         vertex 2.000000e+00 5.100000e+01 6.500000e+00
         vertex 0.000000e+00 5.100000e+01 0.000000e+00
         vertex 0.000000e+00 5.100000e+01 7.000000e+00
      endloop
   endfacet
   facet normal 0.000000e+00 1.000000e+00 -0.000000e+00
      outer loop
         vertex 2.000000e+00 5.100000e+01 6.500000e+00
         vertex 0.000000e+00 5.100000e+01 7.000000e+00
         vertex 4.900000e+01 5.100000e+01 6.500000e+00
      endloop
   endfacet
   facet normal 0.000000e+00 1.000000e+00 -0.000000e+00
      outer loop
         vertex 4.900000e+01 5.100000e+01 6.500000e+00
         vertex 0.000000e+00 5.100000e+01 7.000000e+00
         vertex 5.100000e+01 5.100000e+01 7.000000e+00
      endloop
   endfacet
   facet normal -0.000000e+00 1.000000e+00 0.000000e+00
      outer loop
         vertex 4.900000e+01 5.100000e+01 6.500000e+00
         vertex 5.100000e+01 5.100000e+01 7.000000e+00
         vertex 4.900000e+01 5.100000e+01 0.000000e+00
      endloop
   endfacet
   facet normal 0.000000e+00 1.000000e+00 0.000000e+00
      outer loop
         vertex 4.900000e+01 5.100000e+01 0.000000e+00
         vertex 5.100000e+01 5.100000e+01 7.000000e+00
         vertex 5.100000e+01 5.100000e+01 0.000000e+00
      endloop
   endfacet
   facet normal -1.000000e+00 0.000000e+00 -0.000000e+00
      outer loop
         vertex 0.000000e+00 2.000000e+00 6.500000e+00
         vertex 0.000000e+00 2.000000e+00 5.329071e-15
         vertex 0.000000e+00 0.000000e+00 0.000000e+00
      endloop
   endfacet
   facet normal -1.000000e+00 0.000000e+00 -0.000000e+00
      outer loop
         vertex 0.000000e+00 5.100000e+01 7.000000e+00
         vertex 0.000000e+00 5.100000e+01 0.000000e+00
         vertex 0.000000e+00 4.900000e+01 0.000000e+00
      endloop
   endfacet
   facet normal -1.000000e+00 0.000000e+00 0.000000e+00
      outer loop
         vertex 0.000000e+00 4.900000e+01 0.000000e+00
         vertex 0.000000e+00 4.900000e+01 6.500000e+00
         vertex 0.000000e+00 5.100000e+01 7.000000e+00
      endloop
   endfacet
   facet normal -1.000000e+00 0.000000e+00 0.000000e+00
      outer loop
         vertex 0.000000e+00 5.100000e+01 7.000000e+00
         vertex 0.000000e+00 4.900000e+01 6.500000e+00
         vertex 0.000000e+00 2.000000e+00 6.500000e+00
      endloop
   endfacet
   facet normal -1.000000e+00 -0.000000e+00 0.000000e+00
      outer loop
         vertex 0.000000e+00 5.100000e+01 7.000000e+00
         vertex 0.000000e+00 2.000000e+00 6.500000e+00
         vertex 0.000000e+00 0.000000e+00 7.000000e+00
      endloop
   endfacet
   facet normal -1.000000e+00 0.000000e+00 0.000000e+00
      outer loop
         vertex 0.000000e+00 0.000000e+00 7.000000e+00
         vertex 0.000000e+00 2.000000e+00 6.500000e+00
         vertex 0.000000e+00 0.000000e+00 0.000000e+00
      endloop
   endfacet
   facet normal 1.000000e+00 0.000000e+00 0.000000e+00
      outer loop
         vertex 5.000000e-01 4.900000e+01 0.000000e+00
         vertex 5.000000e-01 5.050000e+01 0.000000e+00
         vertex 5.000000e-01 4.900000e+01 6.500000e+00
      endloop
   endfacet
   facet normal 1.000000e+00 -0.000000e+00 0.000000e+00
      outer loop
         vertex 5.000000e-01 4.900000e+01 6.500000e+00
         vertex 5.000000e-01 5.050000e+01 0.000000e+00
         vertex 5.000000e-01 5.050000e+01 7.000000e+00
      endloop
   endfacet
   facet normal 1.000000e+00 0.000000e+00 -0.000000e+00
      outer loop
         vertex 5.000000e-01 4.900000e+01 6.500000e+00
         vertex 5.000000e-01 5.050000e+01 7.000000e+00
         vertex 5.000000e-01 2.000000e+00 6.500000e+00
      endloop
   endfacet
   facet normal 1.000000e+00 0.000000e+00 -0.000000e+00
      outer loop
         vertex 5.000000e-01 2.000000e+00 6.500000e+00
         vertex 5.000000e-01 5.050000e+01 7.000000e+00
         vertex 5.000000e-01 5.000000e-01 7.000000e+00
      endloop
   endfacet
   facet normal 1.000000e+00 0.000000e+00 0.000000e+00
      outer loop
         vertex 5.000000e-01 2.000000e+00 6.500000e+00
         vertex 5.000000e-01 5.000000e-01 7.000000e+00
         vertex 5.000000e-01 2.000000e+00 5.329071e-15
      endloop
   endfacet
   facet normal 1.000000e+00 0.000000e+00 0.000000e+00
      outer loop
         vertex 5.000000e-01 2.000000e+00 5.329071e-15
         vertex 5.000000e-01 5.000000e-01 7.000000e+00
         vertex 5.000000e-01 5.000000e-01 0.000000e+00
      endloop
   endfacet
   facet normal 0.000000e+00 1.000000e+00 -0.000000e+00
      outer loop
         vertex 2.000000e+00 5.000000e-01 0.000000e+00
         vertex 5.000000e-01 5.000000e-01 0.000000e+00
         vertex 2.000000e+00 5.000000e-01 6.500000e+00
      endloop
   endfacet
   facet normal 0.000000e+00 1.000000e+00 0.000000e+00
      outer loop
         vertex 2.000000e+00 5.000000e-01 6.500000e+00
         vertex 5.000000e-01 5.000000e-01 0.000000e+00
         vertex 5.000000e-01 5.000000e-01 7.000000e+00
      endloop
   endfacet
   facet normal 0.000000e+00 1.000000e+00 -0.000000e+00
      outer loop
         vertex 2.000000e+00 5.000000e-01 6.500000e+00
         vertex 5.000000e-01 5.000000e-01 7.000000e+00
         vertex 4.900000e+01 5.000000e-01 6.500000e+00
      endloop
   endfacet
   facet normal 0.000000e+00 1.000000e+00 -0.000000e+00
      outer loop
         vertex 4.900000e+01 5.000000e-01 6.500000e+00
         vertex 5.000000e-01 5.000000e-01 7.000000e+00
         vertex 5.050000e+01 5.000000e-01 7.000000e+00
      endloop
   endfacet
   facet normal -0.000000e+00 1.000000e+00 0.000000e+00
      outer loop
         vertex 4.900000e+01 5.000000e-01 6.500000e+00
         vertex 5.050000e+01 5.000000e-01 7.000000e+00
         vertex 4.900000e+01 5.000000e-01 0.000000e+00
      endloop
   endfacet
   facet normal 0.000000e+00 1.000000e+00 0.000000e+00
      outer loop
         vertex 4.900000e+01 5.000000e-01 0.000000e+00
         vertex 5.050000e+01 5.000000e-01 7.000000e+00
         vertex 5.050000e+01 5.000000e-01 0.000000e+00
      endloop
   endfacet
   facet normal -1.000000e+00 0.000000e+00 0.000000e+00
      outer loop
         vertex 5.050000e+01 2.000000e+00 0.000000e+00
         vertex 5.050000e+01 5.000000e-01 0.000000e+00
         vertex 5.050000e+01 2.000000e+00 6.500000e+00
      endloop
   endfacet
   facet normal -1.000000e+00 -0.000000e+00 0.000000e+00
      outer loop
         vertex 5.050000e+01 2.000000e+00 6.500000e+00
         vertex 5.050000e+01 5.000000e-01 0.000000e+00
         vertex 5.050000e+01 5.000000e-01 7.000000e+00
      endloop
   endfacet
   facet normal -1.000000e+00 0.000000e+00 0.000000e+00
      outer loop
         vertex 5.050000e+01 2.000000e+00 6.500000e+00
         vertex 5.050000e+01 5.000000e-01 7.000000e+00
         vertex 5.050000e+01 4.900000e+01 6.500000e+00
      endloop
   endfacet
   facet normal -1.000000e+00 0.000000e+00 0.000000e+00
      outer loop
         vertex 5.050000e+01 4.900000e+01 6.500000e+00
         vertex 5.050000e+01 5.000000e-01 7.000000e+00
         vertex 5.050000e+01 5.050000e+01 7.000000e+00
      endloop
   endfacet
   facet normal -1.000000e+00 0.000000e+00 0.000000e+00
      outer loop
         vertex 5.050000e+01 4.900000e+01 6.500000e+00
         vertex 5.050000e+01 5.050000e+01 7.000000e+00
         vertex 5.050000e+01 4.900000e+01 0.000000e+00
      endloop
   endfacet
   facet normal -1.000000e+00 0.000000e+00 0.000000e+00
      outer loop
         vertex 5.050000e+01 4.900000e+01 0.000000e+00
         vertex 5.050000e+01 5.050000e+01 7.000000e+00
         vertex 5.050000e+01 5.050000e+01 0.000000e+00
      endloop
   endfacet
   facet normal 0.000000e+00 -1.000000e+00 0.000000e+00
      outer loop
         vertex 4.900000e+01 5.050000e+01 0.000000e+00
         vertex 5.050000e+01 5.050000e+01 0.000000e+00
         vertex 4.900000e+01 5.050000e+01 6.500000e+00
      endloop
   endfacet
   facet normal 0.000000e+00 -1.000000e+00 0.000000e+00
      outer loop
         vertex 4.900000e+01 5.050000e+01 6.500000e+00
         vertex 5.050000e+01 5.050000e+01 0.000000e+00
         vertex 5.050000e+01 5.050000e+01 7.000000e+00
      endloop
   endfacet
   facet normal 0.000000e+00 -1.000000e+00 0.000000e+00
      outer loop
         vertex 4.900000e+01 5.050000e+01 6.500000e+00
         vertex 5.050000e+01 5.050000e+01 7.000000e+00
         vertex 2.000000e+00 5.050000e+01 6.500000e+00
      endloop
   endfacet
   facet normal 0.000000e+00 -1.000000e+00 0.000000e+00
      outer loop
         vertex 2.000000e+00 5.050000e+01 6.500000e+00
         vertex 5.050000e+01 5.050000e+01 7.000000e+00
         vertex 5.000000e-01 5.050000e+01 7.000000e+00
      endloop
   endfacet
   facet normal -0.000000e+00 -1.000000e+00 -0.000000e+00
      outer loop
         vertex 2.000000e+00 5.050000e+01 6.500000e+00
         vertex 5.000000e-01 5.050000e+01 7.000000e+00
         vertex 2.000000e+00 5.050000e+01 0.000000e+00
      endloop
   endfacet
   facet normal 0.000000e+00 -1.000000e+00 0.000000e+00
      outer loop
         vertex 2.000000e+00 5.050000e+01 0.000000e+00
         vertex 5.000000e-01 5.050000e+01 7.000000e+00
         vertex 5.000000e-01 5.050000e+01 0.000000e+00
      endloop
   endfacet
   facet normal -1.000000e+00 -0.000000e+00 -0.000000e+00
      outer loop
         vertex 4.900000e+01 5.100000e+01 6.500000e+00
         vertex 4.900000e+01 5.100000e+01 0.000000e+00
         vertex 4.900000e+01 5.050000e+01 6.500000e+00
      endloop
   endfacet
   facet normal -1.000000e+00 0.000000e+00 0.000000e+00
      outer loop
         vertex 4.900000e+01 5.050000e+01 6.500000e+00
         vertex 4.900000e+01 5.100000e+01 0.000000e+00
         vertex 4.900000e+01 5.050000e+01 0.000000e+00
      endloop
   endfacet
   facet normal 0.000000e+00 0.000000e+00 -1.000000e+00
      outer loop
         vertex 2.000000e+00 5.100000e+01 6.500000e+00
         vertex 4.900000e+01 5.100000e+01 6.500000e+00
         vertex 2.000000e+00 5.050000e+01 6.500000e+00
      endloop
   endfacet
   facet normal 0.000000e+00 0.000000e+00 -1.000000e+00
      outer loop
         vertex 2.000000e+00 5.050000e+01 6.500000e+00
         vertex 4.900000e+01 5.100000e+01 6.500000e+00
         vertex 4.900000e+01 5.050000e+01 6.500000e+00
      endloop
   endfacet
   facet normal 1.000000e+00 0.000000e+00 -0.000000e+00
      outer loop
         vertex 2.000000e+00 5.100000e+01 0.000000e+00
         vertex 2.000000e+00 5.100000e+01 6.500000e+00
         vertex 2.000000e+00 5.050000e+01 0.000000e+00
      endloop
   endfacet
   facet normal 1.000000e+00 0.000000e+00 0.000000e+00
      outer loop
         vertex 2.000000e+00 5.050000e+01 0.000000e+00
         vertex 2.000000e+00 5.100000e+01 6.500000e+00
         vertex 2.000000e+00 5.050000e+01 6.500000e+00
      endloop
   endfacet
   facet normal 1.000000e+00 0.000000e+00 0.000000e+00
      outer loop
         vertex 2.000000e+00 5.000000e-01 6.500000e+00
         vertex 2.000000e+00 0.000000e+00 6.500000e+00
         vertex 2.000000e+00 5.000000e-01 0.000000e+00
      endloop
   endfacet
   facet normal 1.000000e+00 0.000000e+00 0.000000e+00
      outer loop
         vertex 2.000000e+00 5.000000e-01 0.000000e+00
         vertex 2.000000e+00 0.000000e+00 6.500000e+00
         vertex 2.000000e+00 0.000000e+00 0.000000e+00
      endloop
   endfacet
   facet normal -0.000000e+00 -0.000000e+00 -1.000000e+00
      outer loop
         vertex 4.900000e+01 5.000000e-01 6.500000e+00
         vertex 4.900000e+01 0.000000e+00 6.500000e+00
         vertex 2.000000e+00 5.000000e-01 6.500000e+00
      endloop
   endfacet
   facet normal 0.000000e+00 0.000000e+00 -1.000000e+00
      outer loop
         vertex 2.000000e+00 5.000000e-01 6.500000e+00
         vertex 4.900000e+01 0.000000e+00 6.500000e+00
         vertex 2.000000e+00 0.000000e+00 6.500000e+00
      endloop
   endfacet
   facet normal -1.000000e+00 0.000000e+00 0.000000e+00
      outer loop
         vertex 4.900000e+01 5.000000e-01 0.000000e+00
         vertex 4.900000e+01 0.000000e+00 0.000000e+00
         vertex 4.900000e+01 5.000000e-01 6.500000e+00
      endloop
   endfacet
   facet normal -1.000000e+00 -0.000000e+00 0.000000e+00
      outer loop
         vertex 4.900000e+01 5.000000e-01 6.500000e+00
         vertex 4.900000e+01 0.000000e+00 0.000000e+00
         vertex 4.900000e+01 0.000000e+00 6.500000e+00
      endloop
   endfacet
   facet normal 0.000000e+00 1.000000e+00 0.000000e+00
      outer loop
         vertex 5.100000e+01 2.000000e+00 6.500000e+00
         vertex 5.100000e+01 2.000000e+00 5.755840e-15
         vertex 5.050000e+01 2.000000e+00 6.500000e+00
      endloop
   endfacet
   facet normal 0.000000e+00 1.000000e+00 0.000000e+00
      outer loop
         vertex 5.050000e+01 2.000000e+00 6.500000e+00
         vertex 5.100000e+01 2.000000e+00 5.755840e-15
         vertex 5.050000e+01 2.000000e+00 0.000000e+00
      endloop
   endfacet
   facet normal -0.000000e+00 -0.000000e+00 -1.000000e+00
      outer loop
         vertex 5.100000e+01 4.900000e+01 6.500000e+00
         vertex 5.100000e+01 2.000000e+00 6.500000e+00
         vertex 5.050000e+01 4.900000e+01 6.500000e+00
      endloop
   endfacet
   facet normal 0.000000e+00 0.000000e+00 -1.000000e+00
      outer loop
         vertex 5.050000e+01 4.900000e+01 6.500000e+00
         vertex 5.100000e+01 2.000000e+00 6.500000e+00
         vertex 5.050000e+01 2.000000e+00 6.500000e+00
      endloop
   endfacet
   facet normal 0.000000e+00 -1.000000e+00 0.000000e+00
      outer loop
         vertex 5.100000e+01 4.900000e+01 0.000000e+00
         vertex 5.100000e+01 4.900000e+01 6.500000e+00
         vertex 5.050000e+01 4.900000e+01 0.000000e+00
      endloop
   endfacet
   facet normal 0.000000e+00 -1.000000e+00 0.000000e+00
      outer loop
         vertex 5.050000e+01 4.900000e+01 0.000000e+00
         vertex 5.100000e+01 4.900000e+01 6.500000e+00
         vertex 5.050000e+01 4.900000e+01 6.500000e+00
      endloop
   endfacet
   facet normal -0.000000e+00 -1.000000e+00 -0.000000e+00
      outer loop
         vertex 5.000000e-01 4.900000e+01 6.500000e+00
         vertex 0.000000e+00 4.900000e+01 6.500000e+00
         vertex 5.000000e-01 4.900000e+01 0.000000e+00
      endloop
   endfacet
   facet normal 0.000000e+00 -1.000000e+00 0.000000e+00
      outer loop
         vertex 5.000000e-01 4.900000e+01 0.000000e+00
         vertex 0.000000e+00 4.900000e+01 6.500000e+00
         vertex 0.000000e+00 4.900000e+01 0.000000e+00
      endloop
   endfacet
   facet normal 0.000000e+00 0.000000e+00 -1.000000e+00
      outer loop
         vertex 5.000000e-01 2.000000e+00 6.500000e+00
         vertex 0.000000e+00 2.000000e+00 6.500000e+00
         vertex 5.000000e-01 4.900000e+01 6.500000e+00
      endloop
   endfacet
   facet normal -0.000000e+00 0.000000e+00 -1.000000e+00
      outer loop
         vertex 5.000000e-01 4.900000e+01 6.500000e+00
         vertex 0.000000e+00 2.000000e+00 6.500000e+00
         vertex 0.000000e+00 4.900000e+01 6.500000e+00
      endloop
   endfacet
   facet normal 0.000000e+00 1.000000e+00 -0.000000e+00
      outer loop
         vertex 5.000000e-01 2.000000e+00 5.755840e-15
         vertex 0.000000e+00 2.000000e+00 5.755840e-15
         vertex 5.000000e-01 2.000000e+00 6.500000e+00
      endloop
   endfacet
   facet normal 0.000000e+00 1.000000e+00 0.000000e+00
      outer loop
         vertex 5.000000e-01 2.000000e+00 6.500000e+00
         vertex 0.000000e+00 2.000000e+00 5.755840e-15
         vertex 0.000000e+00 2.000000e+00 6.500000e+00
      endloop
   endfacet
endsolid