solid out4
   facet normal 1.000000e+00 0.000000e+00 0.000000e+00
      outer loop
         vertex 4.500000e+00 2.800000e+00 1.700000e+00
         vertex 4.500000e+00 4.000000e-01 1.700000e+00
         vertex 4.500000e+00 2.800000e+00 0.000000e+00
      endloop
   endfacet
   facet normal 1.000000e+00 0.000000e+00 0.000000e+00
      outer loop
         vertex 4.500000e+00 2.800000e+00 0.000000e+00
         vertex 4.500000e+00 4.000000e-01 1.700000e+00
         vertex 4.500000e+00 4.000000e-01 0.000000e+00
      endloop
   endfacet
   facet normal -0.000000e+00 -1.000000e+00 -0.000000e+00
      outer loop
         vertex 4.500000e+00 4.000000e-01 1.700000e+00
         vertex 4.300000e+00 4.000000e-01 1.700000e+00
         vertex 4.500000e+00 4.000000e-01 0.000000e+00
      endloop
   endfacet
   facet normal 0.000000e+00 -1.000000e+00 0.000000e+00
      outer loop
         vertex 4.500000e+00 4.000000e-01 0.000000e+00
         vertex 4.300000e+00 4.000000e-01 1.700000e+00
         vertex 4.300000e+00 4.000000e-01 0.000000e+00
      endloop
   endfacet
   facet normal -1.000000e+00 0.000000e+00 0.000000e+00
      outer loop
         vertex 4.300000e+00 4.000000e-01 1.700000e+00
         vertex 4.300000e+00 2.800000e+00 1.700000e+00
         vertex 4.300000e+00 4.000000e-01 0.000000e+00
      endloop
   endfacet
   facet normal -1.000000e+00 0.000000e+00 0.000000e+00
      outer loop
         vertex 4.300000e+00 4.000000e-01 0.000000e+00
         vertex 4.300000e+00 2.800000e+00 1.700000e+00
         vertex 4.300000e+00 2.800000e+00 0.000000e+00
      endloop
   endfacet
   facet normal -0.000000e+00 1.000000e+00 0.000000e+00
      outer loop
         vertex 4.300000e+00 2.800000e+00 1.700000e+00
         vertex 4.500000e+00 2.800000e+00 1.700000e+00
         vertex 4.300000e+00 2.800000e+00 0.000000e+00
      endloop
   endfacet
   facet normal 0.000000e+00 1.000000e+00 0.000000e+00
      outer loop
         vertex 4.300000e+00 2.800000e+00 0.000000e+00
         vertex 4.500000e+00 2.800000e+00 1.700000e+00
         vertex 4.500000e+00 2.800000e+00 0.000000e+00
      endloop
   endfacet
   facet normal -0.000000e+00 0.000000e+00 1.000000e+00
      outer loop
         vertex 4.300000e+00 2.800000e+00 1.700000e+00
         vertex 4.300000e+00 4.000000e-01 1.700000e+00
         vertex 4.500000e+00 2.800000e+00 1.700000e+00
      endloop
   endfacet
   facet normal 0.000000e+00 0.000000e+00 1.000000e+00
      outer loop
         vertex 4.500000e+00 2.800000e+00 1.700000e+00
         vertex 4.300000e+00 4.000000e-01 1.700000e+00
         vertex 4.500000e+00 4.000000e-01 1.700000e+00
      endloop
   endfacet
   facet normal 0.000000e+00 0.000000e+00 -1.000000e+00
      outer loop
         vertex 4.500000e+00 4.000000e-01 0.000000e+00
         vertex 4.300000e+00 4.000000e-01 0.000000e+00
         vertex 4.500000e+00 2.800000e+00 0.000000e+00
      endloop
   endfacet
   facet normal -0.000000e+00 0.000000e+00 -1.000000e+00
      outer loop
         vertex 4.500000e+00 2.800000e+00 0.000000e+00
         vertex 4.300000e+00 4.000000e-01 0.000000e+00
         vertex 4.300000e+00 2.800000e+00 0.000000e+00
      endloop
   endfacet
endsolid