solid house
   facet normal 0.000000e+00 0.000000e+00 1.000000e+00
      outer loop
         vertex 4.400000e+00 5.000000e+00 2.600000e+00
         vertex 4.200000e+00 5.800000e+00 2.600000e+00
         vertex 4.200000e+00 4.600000e+00 2.600000e+00
      endloop
   endfacet
   facet normal -0.000000e+00 0.000000e+00 1.000000e+00
      outer loop
         vertex 4.200000e+00 5.800000e+00 2.600000e+00
         vertex 4.400000e+00 5.000000e+00 2.600000e+00
         vertex 6.200000e+00 5.800000e+00 2.600000e+00
      endloop
   endfacet
   facet normal 0.000000e+00 0.000000e+00 1.000000e+00
      outer loop
         vertex 6.200000e+00 5.800000e+00 2.600000e+00
         vertex 4.400000e+00 5.000000e+00 2.600000e+00
         vertex 4.600000e+00 5.000000e+00 2.600000e+00
      endloop
   endfacet
   facet normal 0.000000e+00 0.000000e+00 1.000000e+00
      outer loop
         vertex 6.200000e+00 5.800000e+00 2.600000e+00
         vertex 4.600000e+00 5.000000e+00 2.600000e+00
         vertex 6.200000e+00 4.600000e+00 2.600000e+00
      endloop
   endfacet
   facet normal 0.000000e+00 0.000000e+00 1.000000e+00
      outer loop
         vertex 6.200000e+00 4.600000e+00 2.600000e+00
         vertex 4.600000e+00 5.000000e+00 2.600000e+00
         vertex 4.600000e+00 4.800000e+00 2.600000e+00
      endloop
   endfacet
   facet normal 0.000000e+00 0.000000e+00 1.000000e+00
      outer loop
         vertex 6.200000e+00 4.600000e+00 2.600000e+00
         vertex 4.600000e+00 4.800000e+00 2.600000e+00
         vertex 4.200000e+00 4.600000e+00 2.600000e+00
      endloop
   endfacet
   facet normal 0.000000e+00 0.000000e+00 1.000000e+00
      outer loop
         vertex 4.200000e+00 4.600000e+00 2.600000e+00
         vertex 4.600000e+00 4.800000e+00 2.600000e+00
         vertex 4.400000e+00 4.800000e+00 2.600000e+00
      endloop
   endfacet
   facet normal 0.000000e+00 0.000000e+00 1.000000e+00
      outer loop
         vertex 4.200000e+00 4.600000e+00 2.600000e+00
         vertex 4.400000e+00 4.800000e+00 2.600000e+00
         vertex 4.400000e+00 5.000000e+00 2.600000e+00
      endloop
   endfacet
   facet normal 1.000000e+00 0.000000e+00 0.000000e+00
      outer loop
         vertex 6.200000e+00 4.400000e+00 2.200000e+00
         vertex 6.200000e+00 4.200000e+00 2.200000e+00
         vertex 6.200000e+00 4.200000e+00 0.000000e+00
      endloop
   endfacet
   facet normal 1.000000e+00 0.000000e+00 -0.000000e+00
      outer loop
         vertex 6.200000e+00 6.200000e+00 0.000000e+00
         vertex 6.200000e+00 6.200000e+00 2.200000e+00
         vertex 6.200000e+00 4.200000e+00 0.000000e+00
      endloop
   endfacet
   facet normal 1.000000e+00 0.000000e+00 0.000000e+00
      outer loop
         vertex 6.200000e+00 4.200000e+00 0.000000e+00
         vertex 6.200000e+00 6.200000e+00 2.200000e+00
         vertex 6.200000e+00 6.000000e+00 2.200000e+00
      endloop
   endfacet
   facet normal 1.000000e+00 0.000000e+00 0.000000e+00
      outer loop
         vertex 6.200000e+00 5.800000e+00 2.600000e+00
         vertex 6.200000e+00 4.600000e+00 2.600000e+00
         vertex 6.200000e+00 5.800000e+00 2.400000e+00
      endloop
   endfacet
   facet normal 1.000000e+00 0.000000e+00 0.000000e+00
      outer loop
         vertex 6.200000e+00 5.800000e+00 2.400000e+00
         vertex 6.200000e+00 4.600000e+00 2.600000e+00
         vertex 6.200000e+00 4.600000e+00 2.400000e+00
      endloop
   endfacet
   facet normal 1.000000e+00 0.000000e+00 -0.000000e+00
      outer loop
         vertex 6.200000e+00 6.000000e+00 2.200000e+00
         vertex 6.200000e+00 6.000000e+00 2.400000e+00
         vertex 6.200000e+00 4.200000e+00 0.000000e+00
      endloop
   endfacet
   facet normal 1.000000e+00 0.000000e+00 0.000000e+00
      outer loop
         vertex 6.200000e+00 4.200000e+00 0.000000e+00
         vertex 6.200000e+00 6.000000e+00 2.400000e+00
         vertex 6.200000e+00 5.800000e+00 2.400000e+00
      endloop
   endfacet
   facet normal 1.000000e+00 0.000000e+00 0.000000e+00
      outer loop
         vertex 6.200000e+00 4.200000e+00 0.000000e+00
         vertex 6.200000e+00 5.800000e+00 2.400000e+00
         vertex 6.200000e+00 4.400000e+00 2.200000e+00
      endloop
   endfacet
   facet normal 1.000000e+00 0.000000e+00 0.000000e+00
      outer loop
         vertex 6.200000e+00 4.400000e+00 2.200000e+00
         vertex 6.200000e+00 5.800000e+00 2.400000e+00
         vertex 6.200000e+00 4.600000e+00 2.400000e+00
      endloop
   endfacet
   facet normal 1.000000e+00 0.000000e+00 0.000000e+00
      outer loop
         vertex 6.200000e+00 4.400000e+00 2.200000e+00
         vertex 6.200000e+00 4.600000e+00 2.400000e+00
         vertex 6.200000e+00 4.400000e+00 2.400000e+00
      endloop
   endfacet
   facet normal -0.000000e+00 1.000000e+00 0.000000e+00
      outer loop
         vertex 4.200000e+00 6.200000e+00 2.200000e+00
         vertex 6.200000e+00 6.200000e+00 2.200000e+00
         vertex 4.200000e+00 6.200000e+00 0.000000e+00
      endloop
   endfacet
   facet normal 0.000000e+00 1.000000e+00 0.000000e+00
      outer loop
         vertex 4.200000e+00 6.200000e+00 0.000000e+00
         vertex 6.200000e+00 6.200000e+00 2.200000e+00
         vertex 6.200000e+00 6.200000e+00 0.000000e+00
      endloop
   endfacet
   facet normal -1.000000e+00 0.000000e+00 0.000000e+00
      outer loop
         vertex 4.200000e+00 6.000000e+00 2.200000e+00
         vertex 4.200000e+00 6.200000e+00 2.200000e+00
         vertex 4.200000e+00 6.200000e+00 0.000000e+00
      endloop
   endfacet
   facet normal -1.000000e+00 0.000000e+00 0.000000e+00
      outer loop
         vertex 4.200000e+00 4.200000e+00 0.000000e+00
         vertex 4.200000e+00 4.200000e+00 2.200000e+00
         vertex 4.200000e+00 6.200000e+00 0.000000e+00
      endloop
   endfacet
   facet normal -1.000000e+00 0.000000e+00 0.000000e+00
      outer loop
         vertex 4.200000e+00 6.200000e+00 0.000000e+00
         vertex 4.200000e+00 4.200000e+00 2.200000e+00
         vertex 4.200000e+00 4.400000e+00 2.200000e+00
      endloop
   endfacet
   facet normal -1.000000e+00 0.000000e+00 0.000000e+00
      outer loop
         vertex 4.200000e+00 4.600000e+00 2.600000e+00
         vertex 4.200000e+00 5.800000e+00 2.600000e+00
         vertex 4.200000e+00 4.600000e+00 2.400000e+00
      endloop
   endfacet
   facet normal -1.000000e+00 0.000000e+00 0.000000e+00
      outer loop
         vertex 4.200000e+00 4.600000e+00 2.400000e+00
         vertex 4.200000e+00 5.800000e+00 2.600000e+00
         vertex 4.200000e+00 5.800000e+00 2.400000e+00
      endloop
   endfacet
   facet normal -1.000000e+00 0.000000e+00 0.000000e+00
      outer loop
         vertex 4.200000e+00 4.400000e+00 2.200000e+00
         vertex 4.200000e+00 4.400000e+00 2.400000e+00
         vertex 4.200000e+00 6.200000e+00 0.000000e+00
      endloop
   endfacet
   facet normal -1.000000e+00 0.000000e+00 0.000000e+00
      outer loop
         vertex 4.200000e+00 6.200000e+00 0.000000e+00
         vertex 4.200000e+00 4.400000e+00 2.400000e+00
         vertex 4.200000e+00 4.600000e+00 2.400000e+00
      endloop
   endfacet
   facet normal -1.000000e+00 0.000000e+00 0.000000e+00
      outer loop
         vertex 4.200000e+00 6.200000e+00 0.000000e+00
         vertex 4.200000e+00 4.600000e+00 2.400000e+00
         vertex 4.200000e+00 6.000000e+00 2.200000e+00
      endloop
   endfacet
   facet normal -1.000000e+00 0.000000e+00 0.000000e+00
      outer loop
         vertex 4.200000e+00 6.000000e+00 2.200000e+00
         vertex 4.200000e+00 4.600000e+00 2.400000e+00
         vertex 4.200000e+00 5.800000e+00 2.400000e+00
      endloop
   endfacet
   facet normal -1.000000e+00 0.000000e+00 0.000000e+00
      outer loop
         vertex 4.200000e+00 6.000000e+00 2.200000e+00
         vertex 4.200000e+00 5.800000e+00 2.400000e+00
         vertex 4.200000e+00 6.000000e+00 2.400000e+00
      endloop
   endfacet
   facet normal -0.000000e+00 -1.000000e+00 -0.000000e+00
      outer loop
         vertex 6.200000e+00 4.200000e+00 2.200000e+00
         vertex 4.200000e+00 4.200000e+00 2.200000e+00
         vertex 6.200000e+00 4.200000e+00 0.000000e+00
      endloop
   endfacet
   facet normal 0.000000e+00 -1.000000e+00 0.000000e+00
      outer loop
         vertex 6.200000e+00 4.200000e+00 0.000000e+00
         vertex 4.200000e+00 4.200000e+00 2.200000e+00
         vertex 4.200000e+00 4.200000e+00 0.000000e+00
      endloop
   endfacet
   facet normal 0.000000e+00 0.000000e+00 -1.000000e+00
      outer loop
         vertex 4.200000e+00 4.200000e+00 0.000000e+00
         vertex 4.200000e+00 6.200000e+00 0.000000e+00
         vertex 6.200000e+00 4.200000e+00 0.000000e+00
      endloop
   endfacet
   facet normal 0.000000e+00 0.000000e+00 -1.000000e+00
      outer loop
         vertex 6.200000e+00 4.200000e+00 0.000000e+00
         vertex 4.200000e+00 6.200000e+00 0.000000e+00
         vertex 6.200000e+00 6.200000e+00 0.000000e+00
      endloop
   endfacet
   facet normal 0.000000e+00 1.000000e+00 0.000000e+00
      outer loop
         vertex 4.200000e+00 5.800000e+00 2.400000e+00
         vertex 4.200000e+00 5.800000e+00 2.600000e+00
         vertex 6.200000e+00 5.800000e+00 2.400000e+00
      endloop
   endfacet
   facet normal 0.000000e+00 1.000000e+00 -0.000000e+00
      outer loop
         vertex 6.200000e+00 5.800000e+00 2.400000e+00
         vertex 4.200000e+00 5.800000e+00 2.600000e+00
         vertex 6.200000e+00 5.800000e+00 2.600000e+00
      endloop
   endfacet
   facet normal -0.000000e+00 0.000000e+00 1.000000e+00
      outer loop
         vertex 4.200000e+00 6.000000e+00 2.400000e+00
         vertex 4.200000e+00 5.800000e+00 2.400000e+00
         vertex 6.200000e+00 6.000000e+00 2.400000e+00
      endloop
   endfacet
   facet normal 0.000000e+00 0.000000e+00 1.000000e+00
      outer loop
         vertex 6.200000e+00 6.000000e+00 2.400000e+00
         vertex 4.200000e+00 5.800000e+00 2.400000e+00
         vertex 6.200000e+00 5.800000e+00 2.400000e+00
      endloop
   endfacet
   facet normal 0.000000e+00 1.000000e+00 0.000000e+00
      outer loop
         vertex 4.200000e+00 6.000000e+00 2.200000e+00
         vertex 4.200000e+00 6.000000e+00 2.400000e+00
         vertex 6.200000e+00 6.000000e+00 2.200000e+00
      endloop
   endfacet
   facet normal 0.000000e+00 1.000000e+00 -0.000000e+00
      outer loop
         vertex 6.200000e+00 6.000000e+00 2.200000e+00
         vertex 4.200000e+00 6.000000e+00 2.400000e+00
         vertex 6.200000e+00 6.000000e+00 2.400000e+00
      endloop
   endfacet
   facet normal -0.000000e+00 0.000000e+00 1.000000e+00
      outer loop
         vertex 4.200000e+00 6.200000e+00 2.200000e+00
         vertex 4.200000e+00 6.000000e+00 2.200000e+00
         vertex 6.200000e+00 6.200000e+00 2.200000e+00
      endloop
   endfacet
   facet normal 0.000000e+00 0.000000e+00 1.000000e+00
      outer loop
         vertex 6.200000e+00 6.200000e+00 2.200000e+00
         vertex 4.200000e+00 6.000000e+00 2.200000e+00
         vertex 6.200000e+00 6.000000e+00 2.200000e+00
      endloop
   endfacet
   facet normal -0.000000e+00 0.000000e+00 1.000000e+00
      outer loop
         vertex 4.200000e+00 4.400000e+00 2.200000e+00
         vertex 4.200000e+00 4.200000e+00 2.200000e+00
         vertex 6.200000e+00 4.400000e+00 2.200000e+00
      endloop
   endfacet
   facet normal 0.000000e+00 0.000000e+00 1.000000e+00
      outer loop
         vertex 6.200000e+00 4.400000e+00 2.200000e+00
         vertex 4.200000e+00 4.200000e+00 2.200000e+00
         vertex 6.200000e+00 4.200000e+00 2.200000e+00
      endloop
   endfacet
   facet normal 0.000000e+00 -1.000000e+00 0.000000e+00
      outer loop
         vertex 4.200000e+00 4.400000e+00 2.400000e+00
         vertex 4.200000e+00 4.400000e+00 2.200000e+00
         vertex 6.200000e+00 4.400000e+00 2.400000e+00
      endloop
   endfacet
   facet normal 0.000000e+00 -1.000000e+00 -0.000000e+00
      outer loop
         vertex 6.200000e+00 4.400000e+00 2.400000e+00
         vertex 4.200000e+00 4.400000e+00 2.200000e+00
         vertex 6.200000e+00 4.400000e+00 2.200000e+00
      endloop
   endfacet
   facet normal -0.000000e+00 0.000000e+00 1.000000e+00
      outer loop
         vertex 4.200000e+00 4.600000e+00 2.400000e+00
         vertex 4.200000e+00 4.400000e+00 2.400000e+00
         vertex 6.200000e+00 4.600000e+00 2.400000e+00
      endloop
   endfacet
   facet normal 0.000000e+00 0.000000e+00 1.000000e+00
      outer loop
         vertex 6.200000e+00 4.600000e+00 2.400000e+00
         vertex 4.200000e+00 4.400000e+00 2.400000e+00
         vertex 6.200000e+00 4.400000e+00 2.400000e+00
      endloop
   endfacet
   facet normal 0.000000e+00 -1.000000e+00 0.000000e+00
      outer loop
         vertex 4.200000e+00 4.600000e+00 2.600000e+00
         vertex 4.200000e+00 4.600000e+00 2.400000e+00
         vertex 6.200000e+00 4.600000e+00 2.600000e+00
      endloop
   endfacet
   facet normal 0.000000e+00 -1.000000e+00 -0.000000e+00
      outer loop
         vertex 6.200000e+00 4.600000e+00 2.600000e+00
         vertex 4.200000e+00 4.600000e+00 2.400000e+00
         vertex 6.200000e+00 4.600000e+00 2.400000e+00
      endloop
   endfacet
   facet normal -1.000000e+00 0.000000e+00 0.000000e+00
      outer loop
         vertex 4.400000e+00 4.800000e+00 2.800000e+00
         vertex 4.400000e+00 5.000000e+00 2.800000e+00
         vertex 4.400000e+00 4.800000e+00 2.600000e+00
      endloop
   endfacet
   facet normal -1.000000e+00 0.000000e+00 0.000000e+00
      outer loop
         vertex 4.400000e+00 4.800000e+00 2.600000e+00
         vertex 4.400000e+00 5.000000e+00 2.800000e+00
         vertex 4.400000e+00 5.000000e+00 2.600000e+00
      endloop
   endfacet
   facet normal -0.000000e+00 -1.000000e+00 -0.000000e+00
      outer loop
         vertex 4.600000e+00 4.800000e+00 2.800000e+00
         vertex 4.400000e+00 4.800000e+00 2.800000e+00
         vertex 4.600000e+00 4.800000e+00 2.600000e+00
      endloop
   endfacet
   facet normal 0.000000e+00 -1.000000e+00 0.000000e+00
      outer loop
         vertex 4.600000e+00 4.800000e+00 2.600000e+00
         vertex 4.400000e+00 4.800000e+00 2.800000e+00
         vertex 4.400000e+00 4.800000e+00 2.600000e+00
      endloop
   endfacet
   facet normal 1.000000e+00 0.000000e+00 0.000000e+00
      outer loop
         vertex 4.600000e+00 5.000000e+00 2.800000e+00
         vertex 4.600000e+00 4.800000e+00 2.800000e+00
         vertex 4.600000e+00 5.000000e+00 2.600000e+00
      endloop
   endfacet
   facet normal 1.000000e+00 0.000000e+00 0.000000e+00
      outer loop
         vertex 4.600000e+00 5.000000e+00 2.600000e+00
         vertex 4.600000e+00 4.800000e+00 2.800000e+00
         vertex 4.600000e+00 4.800000e+00 2.600000e+00
      endloop
   endfacet
   facet normal -0.000000e+00 1.000000e+00 0.000000e+00
      outer loop
         vertex 4.400000e+00 5.000000e+00 2.800000e+00
         vertex 4.600000e+00 5.000000e+00 2.800000e+00
         vertex 4.400000e+00 5.000000e+00 2.600000e+00
      endloop
   endfacet
   facet normal 0.000000e+00 1.000000e+00 0.000000e+00
      outer loop
         vertex 4.400000e+00 5.000000e+00 2.600000e+00
         vertex 4.600000e+00 5.000000e+00 2.800000e+00
         vertex 4.600000e+00 5.000000e+00 2.600000e+00
      endloop
   endfacet
   facet normal 0.000000e+00 -0.000000e+00 1.000000e+00
      outer loop
         vertex 4.600000e+00 4.800000e+00 2.800000e+00
         vertex 4.600000e+00 5.000000e+00 2.800000e+00
         vertex 4.400000e+00 4.800000e+00 2.800000e+00
      endloop
   endfacet
   facet normal 0.000000e+00 0.000000e+00 1.000000e+00
      outer loop
         vertex 4.400000e+00 4.800000e+00 2.800000e+00
         vertex 4.600000e+00 5.000000e+00 2.800000e+00
         vertex 4.400000e+00 5.000000e+00 2.800000e+00
      endloop
   endfacet
endsolid