solid obs2
   facet normal 1.000000e+00 0.000000e+00 0.000000e+00
      outer loop
         vertex 1.370000e+01 7.700000e+00 2.000000e+00
         vertex 1.370000e+01 5.700000e+00 2.000000e+00
         vertex 1.370000e+01 7.700000e+00 0.000000e+00
      endloop
   endfacet
   facet normal 1.000000e+00 0.000000e+00 0.000000e+00
      outer loop
         vertex 1.370000e+01 7.700000e+00 0.000000e+00
         vertex 1.370000e+01 5.700000e+00 2.000000e+00
         vertex 1.370000e+01 5.700000e+00 0.000000e+00
      endloop
   endfacet
   facet normal -0.000000e+00 1.000000e+00 0.000000e+00
      outer loop
         vertex 1.170000e+01 7.700000e+00 2.000000e+00
         vertex 1.370000e+01 7.700000e+00 2.000000e+00
         vertex 1.170000e+01 7.700000e+00 0.000000e+00
      endloop
   endfacet
   facet normal 0.000000e+00 1.000000e+00 0.000000e+00
      outer loop
         vertex 1.170000e+01 7.700000e+00 0.000000e+00
         vertex 1.370000e+01 7.700000e+00 2.000000e+00
         vertex 1.370000e+01 7.700000e+00 0.000000e+00
      endloop
   endfacet
   facet normal -1.000000e+00 0.000000e+00 0.000000e+00
      outer loop
         vertex 1.170000e+01 5.700000e+00 2.000000e+00
         vertex 1.170000e+01 7.700000e+00 2.000000e+00
         vertex 1.170000e+01 5.700000e+00 0.000000e+00
      endloop
   endfacet
   facet normal -1.000000e+00 0.000000e+00 0.000000e+00
      outer loop
         vertex 1.170000e+01 5.700000e+00 0.000000e+00
         vertex 1.170000e+01 7.700000e+00 2.000000e+00
         vertex 1.170000e+01 7.700000e+00 0.000000e+00
      endloop
   endfacet
   facet normal -0.000000e+00 -1.000000e+00 -0.000000e+00
      outer loop
         vertex 1.370000e+01 5.700000e+00 2.000000e+00
         vertex 1.170000e+01 5.700000e+00 2.000000e+00
         vertex 1.370000e+01 5.700000e+00 0.000000e+00
      endloop
   endfacet
   facet normal 0.000000e+00 -1.000000e+00 0.000000e+00
      outer loop
         vertex 1.370000e+01 5.700000e+00 0.000000e+00
         vertex 1.170000e+01 5.700000e+00 2.000000e+00
         vertex 1.170000e+01 5.700000e+00 0.000000e+00
      endloop
   endfacet
   facet normal -0.000000e+00 0.000000e+00 1.000000e+00
      outer loop
         vertex 1.170000e+01 7.700000e+00 2.000000e+00
         vertex 1.170000e+01 5.700000e+00 2.000000e+00
         vertex 1.370000e+01 7.700000e+00 2.000000e+00
      endloop
   endfacet
   facet normal 0.000000e+00 0.000000e+00 1.000000e+00
      outer loop
         vertex 1.370000e+01 7.700000e+00 2.000000e+00
         vertex 1.170000e+01 5.700000e+00 2.000000e+00
         vertex 1.370000e+01 5.700000e+00 2.000000e+00
      endloop
   endfacet
   facet normal 0.000000e+00 0.000000e+00 -1.000000e+00
      outer loop
         vertex 1.170000e+01 5.700000e+00 0.000000e+00
         vertex 1.170000e+01 7.700000e+00 0.000000e+00
         vertex 1.370000e+01 5.700000e+00 0.000000e+00
      endloop
   endfacet
   facet normal 0.000000e+00 0.000000e+00 -1.000000e+00
      outer loop
         vertex 1.370000e+01 5.700000e+00 0.000000e+00
         vertex 1.170000e+01 7.700000e+00 0.000000e+00
         vertex 1.370000e+01 7.700000e+00 0.000000e+00
      endloop
   endfacet
endsolid