solid out4
   facet normal 0.000000e+00 0.000000e+00 1.000000e+00
      outer loop
         vertex 1.620000e+01 3.000000e-01 4.000000e+00
         vertex 1.640000e+01 3.000000e-01 4.000000e+00
         vertex 1.620000e+01 1.010000e+01 4.000000e+00
      endloop
   endfacet
   facet normal -0.000000e+00 0.000000e+00 1.000000e+00
      outer loop
         vertex 1.620000e+01 1.010000e+01 4.000000e+00
         vertex 1.640000e+01 3.000000e-01 4.000000e+00
         vertex 1.640000e+01 1.010000e+01 4.000000e+00
      endloop
   endfacet
   facet normal -1.000000e+00 0.000000e+00 0.000000e+00
      outer loop
         vertex 1.620000e+01 3.000000e-01 0.000000e+00
         vertex 1.620000e+01 3.000000e-01 4.000000e+00
         vertex 1.620000e+01 1.010000e+01 0.000000e+00
      endloop
   endfacet
   facet normal -1.000000e+00 0.000000e+00 0.000000e+00
      outer loop
         vertex 1.620000e+01 1.010000e+01 0.000000e+00
         vertex 1.620000e+01 3.000000e-01 4.000000e+00
         vertex 1.620000e+01 1.010000e+01 4.000000e+00
      endloop
   endfacet
   facet normal -0.000000e+00 -1.000000e+00 -0.000000e+00
      outer loop
         vertex 1.640000e+01 3.000000e-01 4.000000e+00
         vertex 1.620000e+01 3.000000e-01 4.000000e+00
         vertex 1.640000e+01 3.000000e-01 0.000000e+00
      endloop
   endfacet
   facet normal 0.000000e+00 -1.000000e+00 0.000000e+00
      outer loop
         vertex 1.640000e+01 3.000000e-01 0.000000e+00
         vertex 1.620000e+01 3.000000e-01 4.000000e+00
         vertex 1.620000e+01 3.000000e-01 0.000000e+00
      endloop
   endfacet
   facet normal 1.000000e+00 0.000000e+00 0.000000e+00
      outer loop
         vertex 1.640000e+01 1.010000e+01 4.000000e+00
         vertex 1.640000e+01 3.000000e-01 4.000000e+00
         vertex 1.640000e+01 1.010000e+01 0.000000e+00
      endloop
   endfacet
   facet normal 1.000000e+00 0.000000e+00 0.000000e+00
      outer loop
         vertex 1.640000e+01 1.010000e+01 0.000000e+00
         vertex 1.640000e+01 3.000000e-01 4.000000e+00
         vertex 1.640000e+01 3.000000e-01 0.000000e+00
      endloop
   endfacet
   facet normal 0.000000e+00 1.000000e+00 0.000000e+00
      outer loop
         vertex 1.620000e+01 1.010000e+01 0.000000e+00
         vertex 1.620000e+01 1.010000e+01 4.000000e+00
         vertex 1.640000e+01 1.010000e+01 0.000000e+00
      endloop
   endfacet
   facet normal 0.000000e+00 1.000000e+00 -0.000000e+00
      outer loop
         vertex 1.640000e+01 1.010000e+01 0.000000e+00
         vertex 1.620000e+01 1.010000e+01 4.000000e+00
         vertex 1.640000e+01 1.010000e+01 4.000000e+00
      endloop
   endfacet
   facet normal 0.000000e+00 0.000000e+00 -1.000000e+00
      outer loop
         vertex 1.620000e+01 3.000000e-01 0.000000e+00
         vertex 1.620000e+01 1.010000e+01 0.000000e+00
         vertex 1.640000e+01 3.000000e-01 0.000000e+00
      endloop
   endfacet
   facet normal 0.000000e+00 0.000000e+00 -1.000000e+00
      outer loop
         vertex 1.640000e+01 3.000000e-01 0.000000e+00
         vertex 1.620000e+01 1.010000e+01 0.000000e+00
         vertex 1.640000e+01 1.010000e+01 0.000000e+00
      endloop
   endfacet
endsolid