solid walls
   facet normal 0.000000e+00 0.000000e+00 -1.000000e+00
      outer loop
         vertex 1.610000e+01 1.020000e+01 0.000000e+00
         vertex 1.610000e+01 1.040000e+01 0.000000e+00
         vertex 1.620000e+01 1.020000e+01 0.000000e+00
      endloop
   endfacet
   facet normal 0.000000e+00 0.000000e+00 -1.000000e+00
      outer loop
         vertex 1.620000e+01 1.020000e+01 0.000000e+00
         vertex 1.610000e+01 1.040000e+01 0.000000e+00
         vertex 1.640000e+01 1.040000e+01 0.000000e+00
      endloop
   endfacet
   facet normal 0.000000e+00 0.000000e+00 -1.000000e+00
      outer loop
         vertex 1.620000e+01 1.020000e+01 0.000000e+00
         vertex 1.640000e+01 1.040000e+01 0.000000e+00
         vertex 1.620000e+01 1.010000e+01 0.000000e+00
      endloop
   endfacet
   facet normal 0.000000e+00 0.000000e+00 -1.000000e+00
      outer loop
         vertex 1.620000e+01 1.010000e+01 0.000000e+00
         vertex 1.640000e+01 1.040000e+01 0.000000e+00
         vertex 1.640000e+01 1.010000e+01 0.000000e+00
      endloop
   endfacet
   facet normal 0.000000e+00 0.000000e+00 -1.000000e+00
      outer loop
         vertex 1.620000e+01 3.000000e-01 0.000000e+00
         vertex 1.640000e+01 3.000000e-01 0.000000e+00
         vertex 1.620000e+01 2.000000e-01 0.000000e+00
      endloop
   endfacet
   facet normal 0.000000e+00 0.000000e+00 -1.000000e+00
      outer loop
         vertex 1.620000e+01 2.000000e-01 0.000000e+00
         vertex 1.640000e+01 3.000000e-01 0.000000e+00
         vertex 1.640000e+01 0.000000e+00 0.000000e+00
      endloop
   endfacet
   facet normal -0.000000e+00 -0.000000e+00 -1.000000e+00
      outer loop
         vertex 1.620000e+01 2.000000e-01 0.000000e+00
         vertex 1.640000e+01 0.000000e+00 0.000000e+00
         vertex 1.610000e+01 2.000000e-01 0.000000e+00
      endloop
   endfacet
   facet normal 0.000000e+00 0.000000e+00 -1.000000e+00
      outer loop
         vertex 1.610000e+01 2.000000e-01 0.000000e+00
         vertex 1.640000e+01 0.000000e+00 0.000000e+00
         vertex 1.610000e+01 0.000000e+00 0.000000e+00
      endloop
   endfacet
   facet normal 0.000000e+00 0.000000e+00 -1.000000e+00
      outer loop
         vertex 2.000000e-01 1.010000e+01 0.000000e+00
         vertex 0.000000e+00 1.010000e+01 0.000000e+00
         vertex 2.000000e-01 1.020000e+01 0.000000e+00
      endloop
   endfacet
   facet normal -0.000000e+00 0.000000e+00 -1.000000e+00
      outer loop
         vertex 2.000000e-01 1.020000e+01 0.000000e+00
         vertex 0.000000e+00 1.010000e+01 0.000000e+00
         vertex 0.000000e+00 1.040000e+01 0.000000e+00
      endloop
   endfacet
   facet normal 0.000000e+00 0.000000e+00 -1.000000e+00
      outer loop
         vertex 2.000000e-01 1.020000e+01 0.000000e+00
         vertex 0.000000e+00 1.040000e+01 0.000000e+00
         vertex 3.000000e-01 1.020000e+01 0.000000e+00
      endloop
   endfacet
   facet normal 0.000000e+00 0.000000e+00 -1.000000e+00
      outer loop
         vertex 3.000000e-01 1.020000e+01 0.000000e+00
         vertex 0.000000e+00 1.040000e+01 0.000000e+00
         vertex 3.000000e-01 1.040000e+01 0.000000e+00
      endloop
   endfacet
   facet normal 0.000000e+00 0.000000e+00 1.000000e+00
      outer loop
         vertex 2.000000e-01 1.020000e+01 5.000000e+00
         vertex 0.000000e+00 1.040000e+01 5.000000e+00
         vertex 2.000000e-01 2.000000e-01 5.000000e+00
      endloop
   endfacet
   facet normal 0.000000e+00 0.000000e+00 1.000000e+00
      outer loop
         vertex 2.000000e-01 2.000000e-01 5.000000e+00
         vertex 0.000000e+00 1.040000e+01 5.000000e+00
         vertex 0.000000e+00 0.000000e+00 5.000000e+00
      endloop
   endfacet
   facet normal -0.000000e+00 0.000000e+00 1.000000e+00
      outer loop
         vertex 2.000000e-01 2.000000e-01 5.000000e+00
         vertex 0.000000e+00 0.000000e+00 5.000000e+00
         vertex 1.620000e+01 2.000000e-01 5.000000e+00
      endloop
   endfacet
   facet normal 0.000000e+00 0.000000e+00 1.000000e+00
      outer loop
         vertex 1.620000e+01 2.000000e-01 5.000000e+00
         vertex 0.000000e+00 0.000000e+00 5.000000e+00
         vertex 1.640000e+01 0.000000e+00 5.000000e+00
      endloop
   endfacet
   facet normal -0.000000e+00 0.000000e+00 1.000000e+00
      outer loop
         vertex 1.620000e+01 2.000000e-01 5.000000e+00
         vertex 1.640000e+01 0.000000e+00 5.000000e+00
         vertex 1.620000e+01 1.020000e+01 5.000000e+00
      endloop
   endfacet
   facet normal -0.000000e+00 0.000000e+00 1.000000e+00
      outer loop
         vertex 1.620000e+01 1.020000e+01 5.000000e+00
         vertex 1.640000e+01 0.000000e+00 5.000000e+00
         vertex 1.640000e+01 1.040000e+01 5.000000e+00
      endloop
   endfacet
   facet normal 0.000000e+00 -0.000000e+00 1.000000e+00
      outer loop
         vertex 1.620000e+01 1.020000e+01 5.000000e+00
         vertex 1.640000e+01 1.040000e+01 5.000000e+00
         vertex 2.000000e-01 1.020000e+01 5.000000e+00
      endloop
   endfacet
   facet normal 0.000000e+00 -0.000000e+00 1.000000e+00
      outer loop
         vertex 2.000000e-01 1.020000e+01 5.000000e+00
         vertex 1.640000e+01 1.040000e+01 5.000000e+00
         vertex 0.000000e+00 1.040000e+01 5.000000e+00
      endloop
   endfacet
   facet normal -0.000000e+00 -0.000000e+00 -1.000000e+00
      outer loop
         vertex 3.000000e-01 2.000000e-01 0.000000e+00
         vertex 3.000000e-01 0.000000e+00 0.000000e+00
         vertex 2.000000e-01 2.000000e-01 0.000000e+00
      endloop
   endfacet
   facet normal 0.000000e+00 -0.000000e+00 -1.000000e+00
      outer loop
         vertex 2.000000e-01 2.000000e-01 0.000000e+00
         vertex 3.000000e-01 0.000000e+00 0.000000e+00
         vertex 0.000000e+00 0.000000e+00 0.000000e+00
      endloop
   endfacet
   facet normal -0.000000e+00 0.000000e+00 -1.000000e+00
      outer loop
         vertex 2.000000e-01 2.000000e-01 0.000000e+00
         vertex 0.000000e+00 0.000000e+00 0.000000e+00
         vertex 2.000000e-01 3.000000e-01 0.000000e+00
      endloop
   endfacet
   facet normal -0.000000e+00 0.000000e+00 -1.000000e+00
      outer loop
         vertex 2.000000e-01 3.000000e-01 0.000000e+00
         vertex 0.000000e+00 0.000000e+00 0.000000e+00
         vertex 0.000000e+00 3.000000e-01 0.000000e+00
      endloop
   endfacet
   facet normal 0.000000e+00 -1.000000e+00 0.000000e+00
      outer loop
         vertex 0.000000e+00 0.000000e+00 0.000000e+00
         vertex 3.000000e-01 0.000000e+00 0.000000e+00
         vertex 3.000000e-01 0.000000e+00 4.000000e+00
      endloop
   endfacet
   facet normal 0.000000e+00 -1.000000e+00 0.000000e+00
      outer loop
         vertex 1.610000e+01 0.000000e+00 0.000000e+00
         vertex 1.640000e+01 0.000000e+00 0.000000e+00
         vertex 1.610000e+01 0.000000e+00 4.000000e+00
      endloop
   endfacet
   facet normal 0.000000e+00 -1.000000e+00 0.000000e+00
      outer loop
         vertex 1.610000e+01 0.000000e+00 4.000000e+00
         vertex 1.640000e+01 0.000000e+00 0.000000e+00
         vertex 1.640000e+01 0.000000e+00 5.000000e+00
      endloop
   endfacet
   facet normal 0.000000e+00 -1.000000e+00 0.000000e+00
      outer loop
         vertex 1.610000e+01 0.000000e+00 4.000000e+00
         vertex 1.640000e+01 0.000000e+00 5.000000e+00
         vertex 3.000000e-01 0.000000e+00 4.000000e+00
      endloop
   endfacet
   facet normal 0.000000e+00 -1.000000e+00 0.000000e+00
      outer loop
         vertex 3.000000e-01 0.000000e+00 4.000000e+00
         vertex 1.640000e+01 0.000000e+00 5.000000e+00
         vertex 0.000000e+00 0.000000e+00 5.000000e+00
      endloop
   endfacet
   facet normal -0.000000e+00 -1.000000e+00 0.000000e+00
      outer loop
         vertex 3.000000e-01 0.000000e+00 4.000000e+00
         vertex 0.000000e+00 0.000000e+00 5.000000e+00
         vertex 0.000000e+00 0.000000e+00 0.000000e+00
      endloop
   endfacet
   facet normal 1.000000e+00 0.000000e+00 0.000000e+00
      outer loop
         vertex 1.640000e+01 0.000000e+00 0.000000e+00
         vertex 1.640000e+01 3.000000e-01 0.000000e+00
         vertex 1.640000e+01 3.000000e-01 4.000000e+00
      endloop
   endfacet
   facet normal 1.000000e+00 0.000000e+00 0.000000e+00
      outer loop
         vertex 1.640000e+01 1.010000e+01 0.000000e+00
         vertex 1.640000e+01 1.040000e+01 0.000000e+00
         vertex 1.640000e+01 1.010000e+01 4.000000e+00
      endloop
   endfacet
   facet normal 1.000000e+00 -0.000000e+00 0.000000e+00
      outer loop
         vertex 1.640000e+01 1.010000e+01 4.000000e+00
         vertex 1.640000e+01 1.040000e+01 0.000000e+00
         vertex 1.640000e+01 1.040000e+01 5.000000e+00
      endloop
   endfacet
   facet normal 1.000000e+00 0.000000e+00 -0.000000e+00
      outer loop
         vertex 1.640000e+01 1.010000e+01 4.000000e+00
         vertex 1.640000e+01 1.040000e+01 5.000000e+00
         vertex 1.640000e+01 3.000000e-01 4.000000e+00
      endloop
   endfacet
   facet normal 1.000000e+00 0.000000e+00 -0.000000e+00
      outer loop
         vertex 1.640000e+01 3.000000e-01 4.000000e+00
         vertex 1.640000e+01 1.040000e+01 5.000000e+00
         vertex 1.640000e+01 0.000000e+00 5.000000e+00
      endloop
   endfacet
   facet normal 1.000000e+00 0.000000e+00 0.000000e+00
      outer loop
         vertex 1.640000e+01 3.000000e-01 4.000000e+00
         vertex 1.640000e+01 0.000000e+00 5.000000e+00
         vertex 1.640000e+01 0.000000e+00 0.000000e+00
      endloop
   endfacet
   facet normal 0.000000e+00 1.000000e+00 0.000000e+00
      outer loop
         vertex 1.640000e+01 1.040000e+01 0.000000e+00
         vertex 1.610000e+01 1.040000e+01 0.000000e+00
         vertex 1.610000e+01 1.040000e+01 4.000000e+00
      endloop
   endfacet
   facet normal 0.000000e+00 1.000000e+00 -0.000000e+00
      outer loop
         vertex 3.000000e-01 1.040000e+01 0.000000e+00
         vertex 0.000000e+00 1.040000e+01 0.000000e+00
         vertex 3.000000e-01 1.040000e+01 4.000000e+00
      endloop
   endfacet
   facet normal 0.000000e+00 1.000000e+00 0.000000e+00
      outer loop
         vertex 3.000000e-01 1.040000e+01 4.000000e+00
         vertex 0.000000e+00 1.040000e+01 0.000000e+00
         vertex 0.000000e+00 1.040000e+01 5.000000e+00
      endloop
   endfacet
   facet normal 0.000000e+00 1.000000e+00 -0.000000e+00
      outer loop
         vertex 3.000000e-01 1.040000e+01 4.000000e+00
         vertex 0.000000e+00 1.040000e+01 5.000000e+00
         vertex 1.610000e+01 1.040000e+01 4.000000e+00
      endloop
   endfacet
   facet normal 0.000000e+00 1.000000e+00 -0.000000e+00
      outer loop
         vertex 1.610000e+01 1.040000e+01 4.000000e+00
         vertex 0.000000e+00 1.040000e+01 5.000000e+00
         vertex 1.640000e+01 1.040000e+01 5.000000e+00
      endloop
   endfacet
   facet normal -0.000000e+00 1.000000e+00 0.000000e+00
      outer loop
         vertex 1.610000e+01 1.040000e+01 4.000000e+00
         vertex 1.640000e+01 1.040000e+01 5.000000e+00
         vertex 1.640000e+01 1.040000e+01 0.000000e+00
      endloop
   endfacet
   facet normal -1.000000e+00 0.000000e+00 0.000000e+00
      outer loop
         vertex 0.000000e+00 1.040000e+01 0.000000e+00
         vertex 0.000000e+00 1.010000e+01 0.000000e+00
         vertex 0.000000e+00 1.010000e+01 4.000000e+00
      endloop
   endfacet
   facet normal -1.000000e+00 0.000000e+00 0.000000e+00
      outer loop
         vertex 0.000000e+00 3.000000e-01 0.000000e+00
         vertex 0.000000e+00 0.000000e+00 0.000000e+00
         vertex 0.000000e+00 3.000000e-01 4.000000e+00
      endloop
   endfacet
   facet normal -1.000000e+00 -0.000000e+00 0.000000e+00
      outer loop
         vertex 0.000000e+00 3.000000e-01 4.000000e+00
         vertex 0.000000e+00 0.000000e+00 0.000000e+00
         vertex 0.000000e+00 0.000000e+00 5.000000e+00
      endloop
   endfacet
   facet normal -1.000000e+00 0.000000e+00 0.000000e+00
      outer loop
         vertex 0.000000e+00 3.000000e-01 4.000000e+00
         vertex 0.000000e+00 0.000000e+00 5.000000e+00
         vertex 0.000000e+00 1.010000e+01 4.000000e+00
      endloop
   endfacet
   facet normal -1.000000e+00 0.000000e+00 0.000000e+00
      outer loop
         vertex 0.000000e+00 1.010000e+01 4.000000e+00
         vertex 0.000000e+00 0.000000e+00 5.000000e+00
         vertex 0.000000e+00 1.040000e+01 5.000000e+00
      endloop
   endfacet
   facet normal -1.000000e+00 0.000000e+00 0.000000e+00
      outer loop
         vertex 0.000000e+00 1.010000e+01 4.000000e+00
         vertex 0.000000e+00 1.040000e+01 5.000000e+00
         vertex 0.000000e+00 1.040000e+01 0.000000e+00
      endloop
   endfacet
   facet normal 1.000000e+00 0.000000e+00 0.000000e+00
      outer loop
         vertex 2.000000e-01 2.000000e-01 0.000000e+00
         vertex 2.000000e-01 3.000000e-01 0.000000e+00
         vertex 2.000000e-01 3.000000e-01 4.000000e+00
      endloop
   endfacet
   facet normal 1.000000e+00 0.000000e+00 0.000000e+00
      outer loop
         vertex 2.000000e-01 1.010000e+01 0.000000e+00
         vertex 2.000000e-01 1.020000e+01 0.000000e+00
         vertex 2.000000e-01 1.010000e+01 4.000000e+00
      endloop
   endfacet
   facet normal 1.000000e+00 -0.000000e+00 0.000000e+00
      outer loop
         vertex 2.000000e-01 1.010000e+01 4.000000e+00
         vertex 2.000000e-01 1.020000e+01 0.000000e+00
         vertex 2.000000e-01 1.020000e+01 5.000000e+00
      endloop
   endfacet
   facet normal 1.000000e+00 0.000000e+00 -0.000000e+00
      outer loop
         vertex 2.000000e-01 1.010000e+01 4.000000e+00
         vertex 2.000000e-01 1.020000e+01 5.000000e+00
         vertex 2.000000e-01 3.000000e-01 4.000000e+00
      endloop
   endfacet
   facet normal 1.000000e+00 0.000000e+00 -0.000000e+00
      outer loop
         vertex 2.000000e-01 3.000000e-01 4.000000e+00
         vertex 2.000000e-01 1.020000e+01 5.000000e+00
         vertex 2.000000e-01 2.000000e-01 5.000000e+00
      endloop
   endfacet
   facet normal 1.000000e+00 0.000000e+00 0.000000e+00
      outer loop
         vertex 2.000000e-01 3.000000e-01 4.000000e+00
         vertex 2.000000e-01 2.000000e-01 5.000000e+00
         vertex 2.000000e-01 2.000000e-01 0.000000e+00
      endloop
   endfacet
   facet normal 0.000000e+00 1.000000e+00 0.000000e+00
      outer loop
         vertex 1.620000e+01 2.000000e-01 0.000000e+00
         vertex 1.610000e+01 2.000000e-01 0.000000e+00
         vertex 1.610000e+01 2.000000e-01 4.000000e+00
      endloop
   endfacet
   facet normal 0.000000e+00 1.000000e+00 -0.000000e+00
      outer loop
         vertex 3.000000e-01 2.000000e-01 0.000000e+00
         vertex 2.000000e-01 2.000000e-01 0.000000e+00
         vertex 3.000000e-01 2.000000e-01 4.000000e+00
      endloop
   endfacet
   facet normal 0.000000e+00 1.000000e+00 0.000000e+00
      outer loop
         vertex 3.000000e-01 2.000000e-01 4.000000e+00
         vertex 2.000000e-01 2.000000e-01 0.000000e+00
         vertex 2.000000e-01 2.000000e-01 5.000000e+00
      endloop
   endfacet
   facet normal 0.000000e+00 1.000000e+00 -0.000000e+00
      outer loop
         vertex 3.000000e-01 2.000000e-01 4.000000e+00
         vertex 2.000000e-01 2.000000e-01 5.000000e+00
         vertex 1.610000e+01 2.000000e-01 4.000000e+00
      endloop
   endfacet
   facet normal 0.000000e+00 1.000000e+00 -0.000000e+00
      outer loop
         vertex 1.610000e+01 2.000000e-01 4.000000e+00
         vertex 2.000000e-01 2.000000e-01 5.000000e+00
         vertex 1.620000e+01 2.000000e-01 5.000000e+00
      endloop
   endfacet
   facet normal -0.000000e+00 1.000000e+00 0.000000e+00
      outer loop
         vertex 1.610000e+01 2.000000e-01 4.000000e+00
         vertex 1.620000e+01 2.000000e-01 5.000000e+00
         vertex 1.620000e+01 2.000000e-01 0.000000e+00
      endloop
   endfacet
   facet normal -1.000000e+00 0.000000e+00 0.000000e+00
      outer loop
         vertex 1.620000e+01 1.020000e+01 0.000000e+00
         vertex 1.620000e+01 1.010000e+01 0.000000e+00
         vertex 1.620000e+01 1.010000e+01 4.000000e+00
      endloop
   endfacet
   facet normal -1.000000e+00 0.000000e+00 0.000000e+00
      outer loop
         vertex 1.620000e+01 3.000000e-01 0.000000e+00
         vertex 1.620000e+01 2.000000e-01 0.000000e+00
         vertex 1.620000e+01 3.000000e-01 4.000000e+00
      endloop
   endfacet
   facet normal -1.000000e+00 -0.000000e+00 0.000000e+00
      outer loop
         vertex 1.620000e+01 3.000000e-01 4.000000e+00
         vertex 1.620000e+01 2.000000e-01 0.000000e+00
         vertex 1.620000e+01 2.000000e-01 5.000000e+00
      endloop
   endfacet
   facet normal -1.000000e+00 0.000000e+00 0.000000e+00
      outer loop
         vertex 1.620000e+01 3.000000e-01 4.000000e+00
         vertex 1.620000e+01 2.000000e-01 5.000000e+00
         vertex 1.620000e+01 1.010000e+01 4.000000e+00
      endloop
   endfacet
   facet normal -1.000000e+00 0.000000e+00 0.000000e+00
      outer loop
         vertex 1.620000e+01 1.010000e+01 4.000000e+00
         vertex 1.620000e+01 2.000000e-01 5.000000e+00
         vertex 1.620000e+01 1.020000e+01 5.000000e+00
      endloop
   endfacet
   facet normal -1.000000e+00 0.000000e+00 0.000000e+00
      outer loop
         vertex 1.620000e+01 1.010000e+01 4.000000e+00
         vertex 1.620000e+01 1.020000e+01 5.000000e+00
         vertex 1.620000e+01 1.020000e+01 0.000000e+00
      endloop
   endfacet
   facet normal 0.000000e+00 -1.000000e+00 0.000000e+00
      outer loop
         vertex 2.000000e-01 1.020000e+01 0.000000e+00
         vertex 3.000000e-01 1.020000e+01 0.000000e+00
         vertex 3.000000e-01 1.020000e+01 4.000000e+00
      endloop
   endfacet
   facet normal 0.000000e+00 -1.000000e+00 0.000000e+00
      outer loop
         vertex 1.610000e+01 1.020000e+01 0.000000e+00
         vertex 1.620000e+01 1.020000e+01 0.000000e+00
         vertex 1.610000e+01 1.020000e+01 4.000000e+00
      endloop
   endfacet
   facet normal 0.000000e+00 -1.000000e+00 0.000000e+00
      outer loop
         vertex 1.610000e+01 1.020000e+01 4.000000e+00
         vertex 1.620000e+01 1.020000e+01 0.000000e+00
         vertex 1.620000e+01 1.020000e+01 5.000000e+00
      endloop
   endfacet
   facet normal 0.000000e+00 -1.000000e+00 0.000000e+00
      outer loop
         vertex 1.610000e+01 1.020000e+01 4.000000e+00
         vertex 1.620000e+01 1.020000e+01 5.000000e+00
         vertex 3.000000e-01 1.020000e+01 4.000000e+00
      endloop
   endfacet
   facet normal 0.000000e+00 -1.000000e+00 0.000000e+00
      outer loop
         vertex 3.000000e-01 1.020000e+01 4.000000e+00
         vertex 1.620000e+01 1.020000e+01 5.000000e+00
         vertex 2.000000e-01 1.020000e+01 5.000000e+00
      endloop
   endfacet
   facet normal -0.000000e+00 -1.000000e+00 0.000000e+00
      outer loop
         vertex 3.000000e-01 1.020000e+01 4.000000e+00
         vertex 2.000000e-01 1.020000e+01 5.000000e+00
         vertex 2.000000e-01 1.020000e+01 0.000000e+00
      endloop
   endfacet
   facet normal 0.000000e+00 1.000000e+00 0.000000e+00
      outer loop
         vertex 1.640000e+01 3.000000e-01 4.000000e+00
         vertex 1.640000e+01 3.000000e-01 0.000000e+00
         vertex 1.620000e+01 3.000000e-01 4.000000e+00
      endloop
   endfacet
   facet normal 0.000000e+00 1.000000e+00 0.000000e+00
      outer loop
         vertex 1.620000e+01 3.000000e-01 4.000000e+00
         vertex 1.640000e+01 3.000000e-01 0.000000e+00
         vertex 1.620000e+01 3.000000e-01 0.000000e+00
      endloop
   endfacet
   facet normal -0.000000e+00 -0.000000e+00 -1.000000e+00
      outer loop
         vertex 1.640000e+01 1.010000e+01 4.000000e+00
         vertex 1.640000e+01 3.000000e-01 4.000000e+00
         vertex 1.620000e+01 1.010000e+01 4.000000e+00
      endloop
   endfacet
   facet normal 0.000000e+00 0.000000e+00 -1.000000e+00
      outer loop
         vertex 1.620000e+01 1.010000e+01 4.000000e+00
         vertex 1.640000e+01 3.000000e-01 4.000000e+00
         vertex 1.620000e+01 3.000000e-01 4.000000e+00
      endloop
   endfacet
   facet normal 0.000000e+00 -1.000000e+00 0.000000e+00
      outer loop
         vertex 1.640000e+01 1.010000e+01 0.000000e+00
         vertex 1.640000e+01 1.010000e+01 4.000000e+00
         vertex 1.620000e+01 1.010000e+01 0.000000e+00
      endloop
   endfacet
   facet normal 0.000000e+00 -1.000000e+00 0.000000e+00
      outer loop
         vertex 1.620000e+01 1.010000e+01 0.000000e+00
         vertex 1.640000e+01 1.010000e+01 4.000000e+00
         vertex 1.620000e+01 1.010000e+01 4.000000e+00
      endloop
   endfacet
   facet normal -0.000000e+00 -1.000000e+00 -0.000000e+00
      outer loop
         vertex 2.000000e-01 1.010000e+01 4.000000e+00
         vertex 0.000000e+00 1.010000e+01 4.000000e+00
         vertex 2.000000e-01 1.010000e+01 0.000000e+00
      endloop
   endfacet
   facet normal 0.000000e+00 -1.000000e+00 0.000000e+00
      outer loop
         vertex 2.000000e-01 1.010000e+01 0.000000e+00
         vertex 0.000000e+00 1.010000e+01 4.000000e+00
         vertex 0.000000e+00 1.010000e+01 0.000000e+00
      endloop
   endfacet
   facet normal 0.000000e+00 0.000000e+00 -1.000000e+00
      outer loop
         vertex 2.000000e-01 3.000000e-01 4.000000e+00
         vertex 0.000000e+00 3.000000e-01 4.000000e+00
         vertex 2.000000e-01 1.010000e+01 4.000000e+00
      endloop
   endfacet
   facet normal -0.000000e+00 0.000000e+00 -1.000000e+00
      outer loop
         vertex 2.000000e-01 1.010000e+01 4.000000e+00
         vertex 0.000000e+00 3.000000e-01 4.000000e+00
         vertex 0.000000e+00 1.010000e+01 4.000000e+00
      endloop
   endfacet
   facet normal 0.000000e+00 1.000000e+00 -0.000000e+00
      outer loop
         vertex 2.000000e-01 3.000000e-01 0.000000e+00
         vertex 0.000000e+00 3.000000e-01 0.000000e+00
         vertex 2.000000e-01 3.000000e-01 4.000000e+00
      endloop
   endfacet
   facet normal 0.000000e+00 1.000000e+00 0.000000e+00
      outer loop
         vertex 2.000000e-01 3.000000e-01 4.000000e+00
         vertex 0.000000e+00 3.000000e-01 0.000000e+00
         vertex 0.000000e+00 3.000000e-01 4.000000e+00
      endloop
   endfacet
   facet normal 1.000000e+00 0.000000e+00 0.000000e+00
      outer loop
         vertex 3.000000e-01 1.020000e+01 0.000000e+00
         vertex 3.000000e-01 1.040000e+01 0.000000e+00
         vertex 3.000000e-01 1.020000e+01 4.000000e+00
      endloop
   endfacet
   facet normal 1.000000e+00 -0.000000e+00 0.000000e+00
      outer loop
         vertex 3.000000e-01 1.020000e+01 4.000000e+00
         vertex 3.000000e-01 1.040000e+01 0.000000e+00
         vertex 3.000000e-01 1.040000e+01 4.000000e+00
      endloop
   endfacet
   facet normal -1.000000e+00 0.000000e+00 0.000000e+00
      outer loop
         vertex 1.610000e+01 1.020000e+01 0.000000e+00
         vertex 1.610000e+01 1.020000e+01 4.000000e+00
         vertex 1.610000e+01 1.040000e+01 0.000000e+00
      endloop
   endfacet
   facet normal -1.000000e+00 0.000000e+00 0.000000e+00
      outer loop
         vertex 1.610000e+01 1.040000e+01 0.000000e+00
         vertex 1.610000e+01 1.020000e+01 4.000000e+00
         vertex 1.610000e+01 1.040000e+01 4.000000e+00
      endloop
   endfacet
   facet normal 0.000000e+00 0.000000e+00 -1.000000e+00
      outer loop
         vertex 3.000000e-01 1.020000e+01 4.000000e+00
         vertex 3.000000e-01 1.040000e+01 4.000000e+00
         vertex 1.610000e+01 1.020000e+01 4.000000e+00
      endloop
   endfacet
   facet normal 0.000000e+00 0.000000e+00 -1.000000e+00
      outer loop
         vertex 1.610000e+01 1.020000e+01 4.000000e+00
         vertex 3.000000e-01 1.040000e+01 4.000000e+00
         vertex 1.610000e+01 1.040000e+01 4.000000e+00
      endloop
   endfacet
   facet normal 0.000000e+00 0.000000e+00 -1.000000e+00
      outer loop
         vertex 1.610000e+01 0.000000e+00 4.000000e+00
         vertex 3.000000e-01 0.000000e+00 4.000000e+00
         vertex 1.610000e+01 2.000000e-01 4.000000e+00
      endloop
   endfacet
   facet normal -0.000000e+00 0.000000e+00 -1.000000e+00
      outer loop
         vertex 1.610000e+01 2.000000e-01 4.000000e+00
         vertex 3.000000e-01 0.000000e+00 4.000000e+00
         vertex 3.000000e-01 2.000000e-01 4.000000e+00
      endloop
   endfacet
   facet normal 1.000000e+00 -0.000000e+00 0.000000e+00
      outer loop
         vertex 3.000000e-01 0.000000e+00 4.000000e+00
         vertex 3.000000e-01 0.000000e+00 0.000000e+00
         vertex 3.000000e-01 2.000000e-01 4.000000e+00
      endloop
   endfacet
   facet normal 1.000000e+00 0.000000e+00 0.000000e+00
      outer loop
         vertex 3.000000e-01 2.000000e-01 4.000000e+00
         vertex 3.000000e-01 0.000000e+00 0.000000e+00
         vertex 3.000000e-01 2.000000e-01 0.000000e+00
      endloop
   endfacet
   facet normal -1.000000e+00 0.000000e+00 0.000000e+00
      outer loop
         vertex 1.610000e+01 0.000000e+00 4.000000e+00
         vertex 1.610000e+01 2.000000e-01 4.000000e+00
         vertex 1.610000e+01 0.000000e+00 0.000000e+00
      endloop
   endfacet
   facet normal -1.000000e+00 0.000000e+00 0.000000e+00
      outer loop
         vertex 1.610000e+01 0.000000e+00 0.000000e+00
         vertex 1.610000e+01 2.000000e-01 4.000000e+00
         vertex 1.610000e+01 2.000000e-01 0.000000e+00
      endloop
   endfacet
endsolid