solid walls
   facet normal 0.000000e+00 0.000000e+00 -1.000000e+00
      outer loop
         vertex 1.000000e-01 2.800000e+00 0.000000e+00
         vertex 0.000000e+00 2.800000e+00 0.000000e+00
         vertex 1.000000e-01 3.100000e+00 0.000000e+00
      endloop
   endfacet
   facet normal -0.000000e+00 0.000000e+00 -1.000000e+00
      outer loop
         vertex 1.000000e-01 3.100000e+00 0.000000e+00
         vertex 0.000000e+00 2.800000e+00 0.000000e+00
         vertex 0.000000e+00 3.200000e+00 0.000000e+00
      endloop
   endfacet
   facet normal 0.000000e+00 0.000000e+00 -1.000000e+00
      outer loop
         vertex 1.000000e-01 3.100000e+00 0.000000e+00
         vertex 0.000000e+00 3.200000e+00 0.000000e+00
         vertex 4.000000e-01 3.100000e+00 0.000000e+00
      endloop
   endfacet
   facet normal 0.000000e+00 0.000000e+00 -1.000000e+00
      outer loop
         vertex 4.000000e-01 3.100000e+00 0.000000e+00
         vertex 0.000000e+00 3.200000e+00 0.000000e+00
         vertex 4.000000e-01 3.200000e+00 0.000000e+00
      endloop
   endfacet
   facet normal 0.000000e+00 0.000000e+00 -1.000000e+00
      outer loop
         vertex 4.100000e+00 3.100000e+00 0.000000e+00
         vertex 4.100000e+00 3.200000e+00 0.000000e+00
         vertex 4.400000e+00 3.100000e+00 0.000000e+00
      endloop
   endfacet
   facet normal 0.000000e+00 0.000000e+00 -1.000000e+00
      outer loop
         vertex 4.400000e+00 3.100000e+00 0.000000e+00
         vertex 4.100000e+00 3.200000e+00 0.000000e+00
         vertex 4.500000e+00 3.200000e+00 0.000000e+00
      endloop
   endfacet
   facet normal 0.000000e+00 0.000000e+00 -1.000000e+00
      outer loop
         vertex 4.400000e+00 3.100000e+00 0.000000e+00
         vertex 4.500000e+00 3.200000e+00 0.000000e+00
         vertex 4.400000e+00 2.800000e+00 0.000000e+00
      endloop
   endfacet
   facet normal 0.000000e+00 0.000000e+00 -1.000000e+00
      outer loop
         vertex 4.400000e+00 2.800000e+00 0.000000e+00
         vertex 4.500000e+00 3.200000e+00 0.000000e+00
         vertex 4.500000e+00 2.800000e+00 0.000000e+00
      endloop
   endfacet
   facet normal -0.000000e+00 -0.000000e+00 -1.000000e+00
      outer loop
         vertex 4.000000e-01 1.000000e-01 0.000000e+00
         vertex 4.000000e-01 0.000000e+00 0.000000e+00
         vertex 1.000000e-01 1.000000e-01 0.000000e+00
      endloop
   endfacet
   facet normal 0.000000e+00 -0.000000e+00 -1.000000e+00
      outer loop
         vertex 1.000000e-01 1.000000e-01 0.000000e+00
         vertex 4.000000e-01 0.000000e+00 0.000000e+00
         vertex 0.000000e+00 0.000000e+00 0.000000e+00
      endloop
   endfacet
   facet normal -0.000000e+00 0.000000e+00 -1.000000e+00
      outer loop
         vertex 1.000000e-01 1.000000e-01 0.000000e+00
         vertex 0.000000e+00 0.000000e+00 0.000000e+00
         vertex 1.000000e-01 4.000000e-01 0.000000e+00
      endloop
   endfacet
   facet normal -0.000000e+00 0.000000e+00 -1.000000e+00
      outer loop
         vertex 1.000000e-01 4.000000e-01 0.000000e+00
         vertex 0.000000e+00 0.000000e+00 0.000000e+00
         vertex 0.000000e+00 4.000000e-01 0.000000e+00
      endloop
   endfacet
   facet normal -0.000000e+00 0.000000e+00 1.000000e+00
      outer loop
         vertex 1.000000e-01 1.000000e-01 2.000000e+00
         vertex 0.000000e+00 0.000000e+00 2.000000e+00
         vertex 4.400000e+00 1.000000e-01 2.000000e+00
      endloop
   endfacet
   facet normal 0.000000e+00 0.000000e+00 1.000000e+00
      outer loop
         vertex 4.400000e+00 1.000000e-01 2.000000e+00
         vertex 0.000000e+00 0.000000e+00 2.000000e+00
         vertex 4.500000e+00 0.000000e+00 2.000000e+00
      endloop
   endfacet
   facet normal -0.000000e+00 0.000000e+00 1.000000e+00
      outer loop
         vertex 4.400000e+00 1.000000e-01 2.000000e+00
         vertex 4.500000e+00 0.000000e+00 2.000000e+00
         vertex 4.400000e+00 3.100000e+00 2.000000e+00
      endloop
   endfacet
   facet normal -0.000000e+00 0.000000e+00 1.000000e+00
      outer loop
         vertex 4.400000e+00 3.100000e+00 2.000000e+00
         vertex 4.500000e+00 0.000000e+00 2.000000e+00
         vertex 4.500000e+00 3.200000e+00 2.000000e+00
      endloop
   endfacet
   facet normal 0.000000e+00 -0.000000e+00 1.000000e+00
      outer loop
         vertex 4.400000e+00 3.100000e+00 2.000000e+00
         vertex 4.500000e+00 3.200000e+00 2.000000e+00
         vertex 1.000000e-01 3.100000e+00 2.000000e+00
      endloop
   endfacet
   facet normal 0.000000e+00 -0.000000e+00 1.000000e+00
      outer loop
         vertex 1.000000e-01 3.100000e+00 2.000000e+00
         vertex 4.500000e+00 3.200000e+00 2.000000e+00
         vertex 0.000000e+00 3.200000e+00 2.000000e+00
      endloop
   endfacet
   facet normal 0.000000e+00 0.000000e+00 1.000000e+00
      outer loop
         vertex 1.000000e-01 3.100000e+00 2.000000e+00
         vertex 0.000000e+00 3.200000e+00 2.000000e+00
         vertex 1.000000e-01 1.000000e-01 2.000000e+00
      endloop
   endfacet
   facet normal 0.000000e+00 0.000000e+00 1.000000e+00
      outer loop
         vertex 1.000000e-01 1.000000e-01 2.000000e+00
         vertex 0.000000e+00 3.200000e+00 2.000000e+00
         vertex 0.000000e+00 0.000000e+00 2.000000e+00
      endloop
   endfacet
   facet normal 0.000000e+00 0.000000e+00 -1.000000e+00
      outer loop
         vertex 4.400000e+00 4.000000e-01 0.000000e+00
         vertex 4.500000e+00 4.000000e-01 0.000000e+00
         vertex 4.400000e+00 1.000000e-01 0.000000e+00
      endloop
   endfacet
   facet normal 0.000000e+00 0.000000e+00 -1.000000e+00
      outer loop
         vertex 4.400000e+00 1.000000e-01 0.000000e+00
         vertex 4.500000e+00 4.000000e-01 0.000000e+00
         vertex 4.500000e+00 0.000000e+00 0.000000e+00
      endloop
   endfacet
   facet normal -0.000000e+00 -0.000000e+00 -1.000000e+00
      outer loop
         vertex 4.400000e+00 1.000000e-01 0.000000e+00
         vertex 4.500000e+00 0.000000e+00 0.000000e+00
         vertex 4.100000e+00 1.000000e-01 0.000000e+00
      endloop
   endfacet
   facet normal 0.000000e+00 0.000000e+00 -1.000000e+00
      outer loop
         vertex 4.100000e+00 1.000000e-01 0.000000e+00
         vertex 4.500000e+00 0.000000e+00 0.000000e+00
         vertex 4.100000e+00 0.000000e+00 0.000000e+00
      endloop
   endfacet
   facet normal -1.000000e+00 0.000000e+00 0.000000e+00
      outer loop
         vertex 0.000000e+00 4.000000e-01 0.000000e+00
         vertex 0.000000e+00 0.000000e+00 0.000000e+00
         vertex 0.000000e+00 4.000000e-01 1.700000e+00
      endloop
   endfacet
   facet normal -1.000000e+00 -0.000000e+00 0.000000e+00
      outer loop
         vertex 0.000000e+00 4.000000e-01 1.700000e+00
         vertex 0.000000e+00 0.000000e+00 0.000000e+00
         vertex 0.000000e+00 0.000000e+00 2.000000e+00
      endloop
   endfacet
   facet normal -1.000000e+00 0.000000e+00 0.000000e+00
      outer loop
         vertex 0.000000e+00 4.000000e-01 1.700000e+00
         vertex 0.000000e+00 0.000000e+00 2.000000e+00
         vertex 0.000000e+00 2.800000e+00 1.700000e+00
      endloop
   endfacet
   facet normal -1.000000e+00 0.000000e+00 0.000000e+00
      outer loop
         vertex 0.000000e+00 2.800000e+00 1.700000e+00
         vertex 0.000000e+00 0.000000e+00 2.000000e+00
         vertex 0.000000e+00 3.200000e+00 2.000000e+00
      endloop
   endfacet
   facet normal -1.000000e+00 0.000000e+00 0.000000e+00
      outer loop
         vertex 0.000000e+00 2.800000e+00 1.700000e+00
         vertex 0.000000e+00 3.200000e+00 2.000000e+00
         vertex 0.000000e+00 2.800000e+00 0.000000e+00
      endloop
   endfacet
   facet normal -1.000000e+00 0.000000e+00 0.000000e+00
      outer loop
         vertex 0.000000e+00 2.800000e+00 0.000000e+00
         vertex 0.000000e+00 3.200000e+00 2.000000e+00
         vertex 0.000000e+00 3.200000e+00 0.000000e+00
      endloop
   endfacet
   facet normal 0.000000e+00 -1.000000e+00 0.000000e+00
      outer loop
         vertex 4.100000e+00 0.000000e+00 0.000000e+00
         vertex 4.500000e+00 0.000000e+00 0.000000e+00
         vertex 4.100000e+00 0.000000e+00 1.700000e+00
      endloop
   endfacet
   facet normal 0.000000e+00 -1.000000e+00 0.000000e+00
      outer loop
         vertex 4.100000e+00 0.000000e+00 1.700000e+00
         vertex 4.500000e+00 0.000000e+00 0.000000e+00
         vertex 4.500000e+00 0.000000e+00 2.000000e+00
      endloop
   endfacet
   facet normal 0.000000e+00 -1.000000e+00 0.000000e+00
      outer loop
         vertex 4.100000e+00 0.000000e+00 1.700000e+00
         vertex 4.500000e+00 0.000000e+00 2.000000e+00
         vertex 4.000000e-01 0.000000e+00 1.700000e+00
      endloop
   endfacet
   facet normal 0.000000e+00 -1.000000e+00 0.000000e+00
      outer loop
         vertex 4.000000e-01 0.000000e+00 1.700000e+00
         vertex 4.500000e+00 0.000000e+00 2.000000e+00
         vertex 0.000000e+00 0.000000e+00 2.000000e+00
      endloop
   endfacet
   facet normal -0.000000e+00 -1.000000e+00 -0.000000e+00
      outer loop
         vertex 4.000000e-01 0.000000e+00 1.700000e+00
         vertex 0.000000e+00 0.000000e+00 2.000000e+00
         vertex 4.000000e-01 0.000000e+00 0.000000e+00
      endloop
   endfacet
   facet normal 0.000000e+00 -1.000000e+00 0.000000e+00
      outer loop
         vertex 4.000000e-01 0.000000e+00 0.000000e+00
         vertex 0.000000e+00 0.000000e+00 2.000000e+00
         vertex 0.000000e+00 0.000000e+00 0.000000e+00
      endloop
   endfacet
   facet normal 1.000000e+00 0.000000e+00 0.000000e+00
      outer loop
         vertex 4.500000e+00 2.800000e+00 0.000000e+00
         vertex 4.500000e+00 3.200000e+00 0.000000e+00
         vertex 4.500000e+00 2.800000e+00 1.700000e+00
      endloop
   endfacet
   facet normal 1.000000e+00 -0.000000e+00 0.000000e+00
      outer loop
         vertex 4.500000e+00 2.800000e+00 1.700000e+00
         vertex 4.500000e+00 3.200000e+00 0.000000e+00
         vertex 4.500000e+00 3.200000e+00 2.000000e+00
      endloop
   endfacet
   facet normal 1.000000e+00 0.000000e+00 -0.000000e+00
      outer loop
         vertex 4.500000e+00 2.800000e+00 1.700000e+00
         vertex 4.500000e+00 3.200000e+00 2.000000e+00
         vertex 4.500000e+00 4.000000e-01 1.700000e+00
      endloop
   endfacet
   facet normal 1.000000e+00 0.000000e+00 -0.000000e+00
      outer loop
         vertex 4.500000e+00 4.000000e-01 1.700000e+00
         vertex 4.500000e+00 3.200000e+00 2.000000e+00
         vertex 4.500000e+00 0.000000e+00 2.000000e+00
      endloop
   endfacet
   facet normal 1.000000e+00 0.000000e+00 0.000000e+00
      outer loop
         vertex 4.500000e+00 4.000000e-01 1.700000e+00
         vertex 4.500000e+00 0.000000e+00 2.000000e+00
         vertex 4.500000e+00 4.000000e-01 0.000000e+00
      endloop
   endfacet
   facet normal 1.000000e+00 0.000000e+00 0.000000e+00
      outer loop
         vertex 4.500000e+00 4.000000e-01 0.000000e+00
         vertex 4.500000e+00 0.000000e+00 2.000000e+00
         vertex 4.500000e+00 0.000000e+00 0.000000e+00
      endloop
   endfacet
   facet normal 0.000000e+00 1.000000e+00 -0.000000e+00
      outer loop
         vertex 4.000000e-01 3.200000e+00 0.000000e+00
         vertex 0.000000e+00 3.200000e+00 0.000000e+00
         vertex 4.000000e-01 3.200000e+00 1.700000e+00
      endloop
   endfacet
   facet normal 0.000000e+00 1.000000e+00 0.000000e+00
      outer loop
         vertex 4.000000e-01 3.200000e+00 1.700000e+00
         vertex 0.000000e+00 3.200000e+00 0.000000e+00
         vertex 0.000000e+00 3.200000e+00 2.000000e+00
      endloop
   endfacet
   facet normal 0.000000e+00 1.000000e+00 -0.000000e+00
      outer loop
         vertex 4.000000e-01 3.200000e+00 1.700000e+00
         vertex 0.000000e+00 3.200000e+00 2.000000e+00
         vertex 4.100000e+00 3.200000e+00 1.700000e+00
      endloop
   endfacet
   facet normal 0.000000e+00 1.000000e+00 -0.000000e+00
      outer loop
         vertex 4.100000e+00 3.200000e+00 1.700000e+00
         vertex 0.000000e+00 3.200000e+00 2.000000e+00
         vertex 4.500000e+00 3.200000e+00 2.000000e+00
      endloop
   endfacet
   facet normal -0.000000e+00 1.000000e+00 0.000000e+00
      outer loop
         vertex 4.100000e+00 3.200000e+00 1.700000e+00
         vertex 4.500000e+00 3.200000e+00 2.000000e+00
         vertex 4.100000e+00 3.200000e+00 0.000000e+00
      endloop
   endfacet
   facet normal 0.000000e+00 1.000000e+00 0.000000e+00
      outer loop
         vertex 4.100000e+00 3.200000e+00 0.000000e+00
         vertex 4.500000e+00 3.200000e+00 2.000000e+00
         vertex 4.500000e+00 3.200000e+00 0.000000e+00
      endloop
   endfacet
   facet normal 1.000000e+00 0.000000e+00 0.000000e+00
      outer loop
         vertex 1.000000e-01 2.800000e+00 0.000000e+00
         vertex 1.000000e-01 3.100000e+00 0.000000e+00
         vertex 1.000000e-01 2.800000e+00 1.700000e+00
      endloop
   endfacet
   facet normal 1.000000e+00 -0.000000e+00 0.000000e+00
      outer loop
         vertex 1.000000e-01 2.800000e+00 1.700000e+00
         vertex 1.000000e-01 3.100000e+00 0.000000e+00
         vertex 1.000000e-01 3.100000e+00 2.000000e+00
      endloop
   endfacet
   facet normal 1.000000e+00 0.000000e+00 -0.000000e+00
      outer loop
         vertex 1.000000e-01 2.800000e+00 1.700000e+00
         vertex 1.000000e-01 3.100000e+00 2.000000e+00
         vertex 1.000000e-01 4.000000e-01 1.700000e+00
      endloop
   endfacet
   facet normal 1.000000e+00 0.000000e+00 -0.000000e+00
      outer loop
         vertex 1.000000e-01 4.000000e-01 1.700000e+00
         vertex 1.000000e-01 3.100000e+00 2.000000e+00
         vertex 1.000000e-01 1.000000e-01 2.000000e+00
      endloop
   endfacet
   facet normal 1.000000e+00 0.000000e+00 0.000000e+00
      outer loop
         vertex 1.000000e-01 4.000000e-01 1.700000e+00
         vertex 1.000000e-01 1.000000e-01 2.000000e+00
         vertex 1.000000e-01 4.000000e-01 0.000000e+00
      endloop
   endfacet
   facet normal 1.000000e+00 0.000000e+00 0.000000e+00
      outer loop
         vertex 1.000000e-01 4.000000e-01 0.000000e+00
         vertex 1.000000e-01 1.000000e-01 2.000000e+00
         vertex 1.000000e-01 1.000000e-01 0.000000e+00
      endloop
   endfacet
   facet normal 0.000000e+00 1.000000e+00 -0.000000e+00
      outer loop
         vertex 4.000000e-01 1.000000e-01 0.000000e+00
         vertex 1.000000e-01 1.000000e-01 0.000000e+00
         vertex 4.000000e-01 1.000000e-01 1.700000e+00
      endloop
   endfacet
   facet normal 0.000000e+00 1.000000e+00 0.000000e+00
      outer loop
         vertex 4.000000e-01 1.000000e-01 1.700000e+00
         vertex 1.000000e-01 1.000000e-01 0.000000e+00
         vertex 1.000000e-01 1.000000e-01 2.000000e+00
      endloop
   endfacet
   facet normal 0.000000e+00 1.000000e+00 -0.000000e+00
      outer loop
         vertex 4.000000e-01 1.000000e-01 1.700000e+00
         vertex 1.000000e-01 1.000000e-01 2.000000e+00
         vertex 4.100000e+00 1.000000e-01 1.700000e+00
      endloop
   endfacet
   facet normal 0.000000e+00 1.000000e+00 -0.000000e+00
      outer loop
         vertex 4.100000e+00 1.000000e-01 1.700000e+00
         vertex 1.000000e-01 1.000000e-01 2.000000e+00
         vertex 4.400000e+00 1.000000e-01 2.000000e+00
      endloop
   endfacet
   facet normal -0.000000e+00 1.000000e+00 0.000000e+00
      outer loop
         vertex 4.100000e+00 1.000000e-01 1.700000e+00
         vertex 4.400000e+00 1.000000e-01 2.000000e+00
         vertex 4.100000e+00 1.000000e-01 0.000000e+00
      endloop
   endfacet
   facet normal 0.000000e+00 1.000000e+00 0.000000e+00
      outer loop
         vertex 4.100000e+00 1.000000e-01 0.000000e+00
         vertex 4.400000e+00 1.000000e-01 2.000000e+00
         vertex 4.400000e+00 1.000000e-01 0.000000e+00
      endloop
   endfacet
   facet normal -1.000000e+00 0.000000e+00 0.000000e+00
      outer loop
         vertex 4.400000e+00 4.000000e-01 0.000000e+00
         vertex 4.400000e+00 1.000000e-01 0.000000e+00
         vertex 4.400000e+00 4.000000e-01 1.700000e+00
      endloop
   endfacet
   facet normal -1.000000e+00 -0.000000e+00 0.000000e+00
      outer loop
         vertex 4.400000e+00 4.000000e-01 1.700000e+00
         vertex 4.400000e+00 1.000000e-01 0.000000e+00
         vertex 4.400000e+00 1.000000e-01 2.000000e+00
      endloop
   endfacet
   facet normal -1.000000e+00 0.000000e+00 0.000000e+00
      outer loop
         vertex 4.400000e+00 4.000000e-01 1.700000e+00
         vertex 4.400000e+00 1.000000e-01 2.000000e+00
         vertex 4.400000e+00 2.800000e+00 1.700000e+00
      endloop
   endfacet
   facet normal -1.000000e+00 0.000000e+00 0.000000e+00
      outer loop
         vertex 4.400000e+00 2.800000e+00 1.700000e+00
         vertex 4.400000e+00 1.000000e-01 2.000000e+00
         vertex 4.400000e+00 3.100000e+00 2.000000e+00
      endloop
   endfacet
   facet normal -1.000000e+00 0.000000e+00 0.000000e+00
      outer loop
         vertex 4.400000e+00 2.800000e+00 1.700000e+00
         vertex 4.400000e+00 3.100000e+00 2.000000e+00
         vertex 4.400000e+00 2.800000e+00 0.000000e+00
      endloop
   endfacet
   facet normal -1.000000e+00 0.000000e+00 0.000000e+00
      outer loop
         vertex 4.400000e+00 2.800000e+00 0.000000e+00
         vertex 4.400000e+00 3.100000e+00 2.000000e+00
         vertex 4.400000e+00 3.100000e+00 0.000000e+00
      endloop
   endfacet
   facet normal 0.000000e+00 -1.000000e+00 0.000000e+00
      outer loop
         vertex 4.100000e+00 3.100000e+00 0.000000e+00
         vertex 4.400000e+00 3.100000e+00 0.000000e+00
         vertex 4.100000e+00 3.100000e+00 1.700000e+00
      endloop
   endfacet
   facet normal 0.000000e+00 -1.000000e+00 0.000000e+00
      outer loop
         vertex 4.100000e+00 3.100000e+00 1.700000e+00
         vertex 4.400000e+00 3.100000e+00 0.000000e+00
         vertex 4.400000e+00 3.100000e+00 2.000000e+00
      endloop
   endfacet
   facet normal 0.000000e+00 -1.000000e+00 0.000000e+00
      outer loop
         vertex 4.100000e+00 3.100000e+00 1.700000e+00
         vertex 4.400000e+00 3.100000e+00 2.000000e+00
         vertex 4.000000e-01 3.100000e+00 1.700000e+00
      endloop
   endfacet
   facet normal 0.000000e+00 -1.000000e+00 0.000000e+00
      outer loop
         vertex 4.000000e-01 3.100000e+00 1.700000e+00
         vertex 4.400000e+00 3.100000e+00 2.000000e+00
         vertex 1.000000e-01 3.100000e+00 2.000000e+00
      endloop
   endfacet
   facet normal -0.000000e+00 -1.000000e+00 -0.000000e+00
      outer loop
         vertex 4.000000e-01 3.100000e+00 1.700000e+00
         vertex 1.000000e-01 3.100000e+00 2.000000e+00
         vertex 4.000000e-01 3.100000e+00 0.000000e+00
      endloop
   endfacet
   facet normal 0.000000e+00 -1.000000e+00 0.000000e+00
      outer loop
         vertex 4.000000e-01 3.100000e+00 0.000000e+00
         vertex 1.000000e-01 3.100000e+00 2.000000e+00
         vertex 1.000000e-01 3.100000e+00 0.000000e+00
      endloop
   endfacet
   facet normal -1.000000e+00 -0.000000e+00 -0.000000e+00
      outer loop
         vertex 4.100000e+00 3.200000e+00 1.700000e+00
         vertex 4.100000e+00 3.200000e+00 0.000000e+00
         vertex 4.100000e+00 3.100000e+00 1.700000e+00
      endloop
   endfacet
   facet normal -1.000000e+00 0.000000e+00 0.000000e+00
      outer loop
         vertex 4.100000e+00 3.100000e+00 1.700000e+00
         vertex 4.100000e+00 3.200000e+00 0.000000e+00
         vertex 4.100000e+00 3.100000e+00 0.000000e+00
      endloop
   endfacet
   facet normal 0.000000e+00 0.000000e+00 -1.000000e+00
      outer loop
         vertex 4.000000e-01 3.200000e+00 1.700000e+00
         vertex 4.100000e+00 3.200000e+00 1.700000e+00
         vertex 4.000000e-01 3.100000e+00 1.700000e+00
      endloop
   endfacet
   facet normal 0.000000e+00 0.000000e+00 -1.000000e+00
      outer loop
         vertex 4.000000e-01 3.100000e+00 1.700000e+00
         vertex 4.100000e+00 3.200000e+00 1.700000e+00
         vertex 4.100000e+00 3.100000e+00 1.700000e+00
      endloop
   endfacet
   facet normal 1.000000e+00 0.000000e+00 -0.000000e+00
      outer loop
         vertex 4.000000e-01 3.200000e+00 0.000000e+00
         vertex 4.000000e-01 3.200000e+00 1.700000e+00
         vertex 4.000000e-01 3.100000e+00 0.000000e+00
      endloop
   endfacet
   facet normal 1.000000e+00 0.000000e+00 0.000000e+00
      outer loop
         vertex 4.000000e-01 3.100000e+00 0.000000e+00
         vertex 4.000000e-01 3.200000e+00 1.700000e+00
         vertex 4.000000e-01 3.100000e+00 1.700000e+00
      endloop
   endfacet
   facet normal 1.000000e+00 -0.000000e+00 0.000000e+00
      outer loop
         vertex 4.000000e-01 0.000000e+00 1.700000e+00
         vertex 4.000000e-01 0.000000e+00 0.000000e+00
         vertex 4.000000e-01 1.000000e-01 1.700000e+00
      endloop
   endfacet
   facet normal 1.000000e+00 0.000000e+00 0.000000e+00
      outer loop
         vertex 4.000000e-01 1.000000e-01 1.700000e+00
         vertex 4.000000e-01 0.000000e+00 0.000000e+00
         vertex 4.000000e-01 1.000000e-01 0.000000e+00
      endloop
   endfacet
   facet normal 0.000000e+00 0.000000e+00 -1.000000e+00
      outer loop
         vertex 4.100000e+00 0.000000e+00 1.700000e+00
         vertex 4.000000e-01 0.000000e+00 1.700000e+00
         vertex 4.100000e+00 1.000000e-01 1.700000e+00
      endloop
   endfacet
   facet normal -0.000000e+00 0.000000e+00 -1.000000e+00
      outer loop
         vertex 4.100000e+00 1.000000e-01 1.700000e+00
         vertex 4.000000e-01 0.000000e+00 1.700000e+00
         vertex 4.000000e-01 1.000000e-01 1.700000e+00
      endloop
   endfacet
   facet normal -1.000000e+00 0.000000e+00 0.000000e+00
      outer loop
         vertex 4.100000e+00 0.000000e+00 0.000000e+00
         vertex 4.100000e+00 0.000000e+00 1.700000e+00
         vertex 4.100000e+00 1.000000e-01 0.000000e+00
      endloop
   endfacet
   facet normal -1.000000e+00 0.000000e+00 0.000000e+00
      outer loop
         vertex 4.100000e+00 1.000000e-01 0.000000e+00
         vertex 4.100000e+00 0.000000e+00 1.700000e+00
         vertex 4.100000e+00 1.000000e-01 1.700000e+00
      endloop
   endfacet
   facet normal 0.000000e+00 1.000000e+00 0.000000e+00
      outer loop
         vertex 4.500000e+00 4.000000e-01 1.700000e+00
         vertex 4.500000e+00 4.000000e-01 0.000000e+00
         vertex 4.400000e+00 4.000000e-01 1.700000e+00
      endloop
   endfacet
   facet normal 0.000000e+00 1.000000e+00 0.000000e+00
      outer loop
         vertex 4.400000e+00 4.000000e-01 1.700000e+00
         vertex 4.500000e+00 4.000000e-01 0.000000e+00
         vertex 4.400000e+00 4.000000e-01 0.000000e+00
      endloop
   endfacet
   facet normal -0.000000e+00 -0.000000e+00 -1.000000e+00
      outer loop
         vertex 4.500000e+00 2.800000e+00 1.700000e+00
         vertex 4.500000e+00 4.000000e-01 1.700000e+00
         vertex 4.400000e+00 2.800000e+00 1.700000e+00
      endloop
   endfacet
   facet normal 0.000000e+00 0.000000e+00 -1.000000e+00
      outer loop
         vertex 4.400000e+00 2.800000e+00 1.700000e+00
         vertex 4.500000e+00 4.000000e-01 1.700000e+00
         vertex 4.400000e+00 4.000000e-01 1.700000e+00
      endloop
   endfacet
   facet normal 0.000000e+00 -1.000000e+00 0.000000e+00
      outer loop
         vertex 4.500000e+00 2.800000e+00 0.000000e+00
         vertex 4.500000e+00 2.800000e+00 1.700000e+00
         vertex 4.400000e+00 2.800000e+00 0.000000e+00
      endloop
   endfacet
   facet normal 0.000000e+00 -1.000000e+00 0.000000e+00
      outer loop
         vertex 4.400000e+00 2.800000e+00 0.000000e+00
         vertex 4.500000e+00 2.800000e+00 1.700000e+00
         vertex 4.400000e+00 2.800000e+00 1.700000e+00
      endloop
   endfacet
   facet normal -0.000000e+00 -1.000000e+00 -0.000000e+00
      outer loop
         vertex 1.000000e-01 2.800000e+00 1.700000e+00
         vertex 0.000000e+00 2.800000e+00 1.700000e+00
         vertex 1.000000e-01 2.800000e+00 0.000000e+00
      endloop
   endfacet
   facet normal 0.000000e+00 -1.000000e+00 0.000000e+00
      outer loop
         vertex 1.000000e-01 2.800000e+00 0.000000e+00
         vertex 0.000000e+00 2.800000e+00 1.700000e+00
         vertex 0.000000e+00 2.800000e+00 0.000000e+00
      endloop
   endfacet
   facet normal 0.000000e+00 0.000000e+00 -1.000000e+00
      outer loop
         vertex 1.000000e-01 4.000000e-01 1.700000e+00
         vertex 0.000000e+00 4.000000e-01 1.700000e+00
         vertex 1.000000e-01 2.800000e+00 1.700000e+00
      endloop
   endfacet
   facet normal -0.000000e+00 0.000000e+00 -1.000000e+00
      outer loop
         vertex 1.000000e-01 2.800000e+00 1.700000e+00
         vertex 0.000000e+00 4.000000e-01 1.700000e+00
         vertex 0.000000e+00 2.800000e+00 1.700000e+00
      endloop
   endfacet
   facet normal 0.000000e+00 1.000000e+00 -0.000000e+00
      outer loop
         vertex 1.000000e-01 4.000000e-01 0.000000e+00
         vertex 0.000000e+00 4.000000e-01 0.000000e+00
         vertex 1.000000e-01 4.000000e-01 1.700000e+00
      endloop
   endfacet
   facet normal 0.000000e+00 1.000000e+00 0.000000e+00
      outer loop
         vertex 1.000000e-01 4.000000e-01 1.700000e+00
         vertex 0.000000e+00 4.000000e-01 0.000000e+00
         vertex 0.000000e+00 4.000000e-01 1.700000e+00
      endloop
   endfacet
endsolid