solid out2
   facet normal -0.000000e+00 0.000000e+00 1.000000e+00
      outer loop
         vertex 1.410000e+01 1.390000e+01 6.500000e+00
         vertex 1.410000e+01 5.000000e-01 6.500000e+00
         vertex 1.440000e+01 1.390000e+01 6.500000e+00
      endloop
   endfacet
   facet normal 0.000000e+00 0.000000e+00 1.000000e+00
      outer loop
         vertex 1.440000e+01 1.390000e+01 6.500000e+00
         vertex 1.410000e+01 5.000000e-01 6.500000e+00
         vertex 1.440000e+01 5.000000e-01 6.500000e+00
      endloop
   endfacet
   facet normal 0.000000e+00 1.000000e+00 0.000000e+00
      outer loop
         vertex 1.410000e+01 1.390000e+01 0.000000e+00
         vertex 1.410000e+01 1.390000e+01 6.500000e+00
         vertex 1.440000e+01 1.390000e+01 0.000000e+00
      endloop
   endfacet
   facet normal 0.000000e+00 1.000000e+00 -0.000000e+00
      outer loop
         vertex 1.440000e+01 1.390000e+01 0.000000e+00
         vertex 1.410000e+01 1.390000e+01 6.500000e+00
         vertex 1.440000e+01 1.390000e+01 6.500000e+00
      endloop
   endfacet
   facet normal -1.000000e+00 0.000000e+00 0.000000e+00
      outer loop
         vertex 1.410000e+01 5.000000e-01 0.000000e+00
         vertex 1.410000e+01 5.000000e-01 6.500000e+00
         vertex 1.410000e+01 1.390000e+01 0.000000e+00
      endloop
   endfacet
   facet normal -1.000000e+00 0.000000e+00 0.000000e+00
      outer loop
         vertex 1.410000e+01 1.390000e+01 0.000000e+00
         vertex 1.410000e+01 5.000000e-01 6.500000e+00
         vertex 1.410000e+01 1.390000e+01 6.500000e+00
      endloop
   endfacet
   facet normal 0.000000e+00 -1.000000e+00 0.000000e+00
      outer loop
         vertex 1.440000e+01 5.000000e-01 0.000000e+00
         vertex 1.440000e+01 5.000000e-01 6.500000e+00
         vertex 1.410000e+01 5.000000e-01 0.000000e+00
      endloop
   endfacet
   facet normal 0.000000e+00 -1.000000e+00 0.000000e+00
      outer loop
         vertex 1.410000e+01 5.000000e-01 0.000000e+00
         vertex 1.440000e+01 5.000000e-01 6.500000e+00
         vertex 1.410000e+01 5.000000e-01 6.500000e+00
      endloop
   endfacet
   facet normal 1.000000e+00 0.000000e+00 -0.000000e+00
      outer loop
         vertex 1.440000e+01 1.390000e+01 0.000000e+00
         vertex 1.440000e+01 1.390000e+01 6.500000e+00
         vertex 1.440000e+01 5.000000e-01 0.000000e+00
      endloop
   endfacet
   facet normal 1.000000e+00 0.000000e+00 0.000000e+00
      outer loop
         vertex 1.440000e+01 5.000000e-01 0.000000e+00
         vertex 1.440000e+01 1.390000e+01 6.500000e+00
         vertex 1.440000e+01 5.000000e-01 6.500000e+00
      endloop
   endfacet
   facet normal 0.000000e+00 0.000000e+00 -1.000000e+00
      outer loop
         vertex 1.410000e+01 1.390000e+01 0.000000e+00
         vertex 1.440000e+01 1.390000e+01 0.000000e+00
         vertex 1.410000e+01 5.000000e-01 0.000000e+00
      endloop
   endfacet
   facet normal 0.000000e+00 0.000000e+00 -1.000000e+00
      outer loop
         vertex 1.410000e+01 5.000000e-01 0.000000e+00
         vertex 1.440000e+01 1.390000e+01 0.000000e+00
         vertex 1.440000e+01 5.000000e-01 0.000000e+00
      endloop
   endfacet
endsolid