solid obs
   facet normal 1.000000e+00 0.000000e+00 0.000000e+00
      outer loop
         vertex 6.200000e+00 5.200000e+00 4.000000e+00
         vertex 6.200000e+00 4.200000e+00 4.000000e+00
         vertex 6.200000e+00 5.200000e+00 0.000000e+00
      endloop
   endfacet
   facet normal 1.000000e+00 0.000000e+00 0.000000e+00
      outer loop
         vertex 6.200000e+00 5.200000e+00 0.000000e+00
         vertex 6.200000e+00 4.200000e+00 4.000000e+00
         vertex 6.200000e+00 4.200000e+00 0.000000e+00
      endloop
   endfacet
   facet normal -0.000000e+00 1.000000e+00 0.000000e+00
      outer loop
         vertex 5.200000e+00 5.200000e+00 4.000000e+00
         vertex 6.200000e+00 5.200000e+00 4.000000e+00
         vertex 5.200000e+00 5.200000e+00 0.000000e+00
      endloop
   endfacet
   facet normal 0.000000e+00 1.000000e+00 0.000000e+00
      outer loop
         vertex 5.200000e+00 5.200000e+00 0.000000e+00
         vertex 6.200000e+00 5.200000e+00 4.000000e+00
         vertex 6.200000e+00 5.200000e+00 0.000000e+00
      endloop
   endfacet
   facet normal -1.000000e+00 0.000000e+00 0.000000e+00
      outer loop
         vertex 5.200000e+00 4.200000e+00 4.000000e+00
         vertex 5.200000e+00 5.200000e+00 4.000000e+00
         vertex 5.200000e+00 4.200000e+00 0.000000e+00
      endloop
   endfacet
   facet normal -1.000000e+00 0.000000e+00 0.000000e+00
      outer loop
         vertex 5.200000e+00 4.200000e+00 0.000000e+00
         vertex 5.200000e+00 5.200000e+00 4.000000e+00
         vertex 5.200000e+00 5.200000e+00 0.000000e+00
      endloop
   endfacet
   facet normal -0.000000e+00 -1.000000e+00 -0.000000e+00
      outer loop
         vertex 6.200000e+00 4.200000e+00 4.000000e+00
         vertex 5.200000e+00 4.200000e+00 4.000000e+00
         vertex 6.200000e+00 4.200000e+00 0.000000e+00
      endloop
   endfacet
   facet normal 0.000000e+00 -1.000000e+00 0.000000e+00
      outer loop
         vertex 6.200000e+00 4.200000e+00 0.000000e+00
         vertex 5.200000e+00 4.200000e+00 4.000000e+00
         vertex 5.200000e+00 4.200000e+00 0.000000e+00
      endloop
   endfacet
   facet normal -0.000000e+00 0.000000e+00 1.000000e+00
      outer loop
         vertex 5.200000e+00 5.200000e+00 4.000000e+00
         vertex 5.200000e+00 4.200000e+00 4.000000e+00
         vertex 6.200000e+00 5.200000e+00 4.000000e+00
      endloop
   endfacet
   facet normal 0.000000e+00 0.000000e+00 1.000000e+00
      outer loop
         vertex 6.200000e+00 5.200000e+00 4.000000e+00
         vertex 5.200000e+00 4.200000e+00 4.000000e+00
         vertex 6.200000e+00 4.200000e+00 4.000000e+00
      endloop
   endfacet
   facet normal 0.000000e+00 0.000000e+00 -1.000000e+00
      outer loop
         vertex 5.200000e+00 4.200000e+00 0.000000e+00
         vertex 5.200000e+00 5.200000e+00 0.000000e+00
         vertex 6.200000e+00 4.200000e+00 0.000000e+00
      endloop
   endfacet
   facet normal 0.000000e+00 0.000000e+00 -1.000000e+00
      outer loop
         vertex 6.200000e+00 4.200000e+00 0.000000e+00
         vertex 5.200000e+00 5.200000e+00 0.000000e+00
         vertex 6.200000e+00 5.200000e+00 0.000000e+00
      endloop
   endfacet
endsolid