solid out4
   facet normal 0.000000e+00 0.000000e+00 1.000000e+00
      outer loop
         vertex 1.420000e+01 3.000000e-01 4.000000e+00
         vertex 1.440000e+01 3.000000e-01 4.000000e+00
         vertex 1.420000e+01 9.100000e+00 4.000000e+00
      endloop
   endfacet
   facet normal -0.000000e+00 0.000000e+00 1.000000e+00
      outer loop
         vertex 1.420000e+01 9.100000e+00 4.000000e+00
         vertex 1.440000e+01 3.000000e-01 4.000000e+00
         vertex 1.440000e+01 9.100000e+00 4.000000e+00
      endloop
   endfacet
   facet normal -1.000000e+00 0.000000e+00 0.000000e+00
      outer loop
         vertex 1.420000e+01 3.000000e-01 0.000000e+00
         vertex 1.420000e+01 3.000000e-01 4.000000e+00
         vertex 1.420000e+01 9.100000e+00 0.000000e+00
      endloop
   endfacet
   facet normal -1.000000e+00 0.000000e+00 0.000000e+00
      outer loop
         vertex 1.420000e+01 9.100000e+00 0.000000e+00
         vertex 1.420000e+01 3.000000e-01 4.000000e+00
         vertex 1.420000e+01 9.100000e+00 4.000000e+00
      endloop
   endfacet
   facet normal -0.000000e+00 -1.000000e+00 -0.000000e+00
      outer loop
         vertex 1.440000e+01 3.000000e-01 4.000000e+00
         vertex 1.420000e+01 3.000000e-01 4.000000e+00
         vertex 1.440000e+01 3.000000e-01 0.000000e+00
      endloop
   endfacet
   facet normal 0.000000e+00 -1.000000e+00 0.000000e+00
      outer loop
         vertex 1.440000e+01 3.000000e-01 0.000000e+00
         vertex 1.420000e+01 3.000000e-01 4.000000e+00
         vertex 1.420000e+01 3.000000e-01 0.000000e+00
      endloop
   endfacet
   facet normal 1.000000e+00 0.000000e+00 0.000000e+00
      outer loop
         vertex 1.440000e+01 9.100000e+00 4.000000e+00
         vertex 1.440000e+01 3.000000e-01 4.000000e+00
         vertex 1.440000e+01 9.100000e+00 0.000000e+00
      endloop
   endfacet
   facet normal 1.000000e+00 0.000000e+00 0.000000e+00
      outer loop
         vertex 1.440000e+01 9.100000e+00 0.000000e+00
         vertex 1.440000e+01 3.000000e-01 4.000000e+00
         vertex 1.440000e+01 3.000000e-01 0.000000e+00
      endloop
   endfacet
   facet normal 0.000000e+00 1.000000e+00 0.000000e+00
      outer loop
         vertex 1.420000e+01 9.100000e+00 0.000000e+00
         vertex 1.420000e+01 9.100000e+00 4.000000e+00
         vertex 1.440000e+01 9.100000e+00 0.000000e+00
      endloop
   endfacet
   facet normal 0.000000e+00 1.000000e+00 -0.000000e+00
      outer loop
         vertex 1.440000e+01 9.100000e+00 0.000000e+00
         vertex 1.420000e+01 9.100000e+00 4.000000e+00
         vertex 1.440000e+01 9.100000e+00 4.000000e+00
      endloop
   endfacet
   facet normal 0.000000e+00 0.000000e+00 -1.000000e+00
      outer loop
         vertex 1.420000e+01 3.000000e-01 0.000000e+00
         vertex 1.420000e+01 9.100000e+00 0.000000e+00
         vertex 1.440000e+01 3.000000e-01 0.000000e+00
      endloop
   endfacet
   facet normal 0.000000e+00 0.000000e+00 -1.000000e+00
      outer loop
         vertex 1.440000e+01 3.000000e-01 0.000000e+00
         vertex 1.420000e+01 9.100000e+00 0.000000e+00
         vertex 1.440000e+01 9.100000e+00 0.000000e+00
      endloop
   endfacet
endsolid